<?xml version="1.0" encoding="UTF-8" standalone="no"?>
<!DOCTYPE svg PUBLIC "-//W3C//DTD SVG 1.1//EN"
 "http://www.w3.org/Graphics/SVG/1.1/DTD/svg11.dtd">
<!-- Generated by graphviz version 2.49.3 (20211023.0002)
 -->
<!-- Title: controllers_diagram Pages: 1 -->
<svg width="938pt" height="352pt"
 viewBox="0.00 0.00 937.50 352.00" xmlns="http://www.w3.org/2000/svg" xmlns:xlink="http://www.w3.org/1999/xlink">
<g id="graph0" class="graph" transform="scale(1 1) rotate(0) translate(4 348)">
<title>controllers_diagram</title>
<polygon fill="transparent" stroke="transparent" points="-4,4 -4,-348 933.5,-348 933.5,4 -4,4"/>
<!-- AnswersController -->
<g id="node1" class="node">
<title>AnswersController</title>
<path fill="none" stroke="black" d="M12,-0.5C12,-0.5 111,-0.5 111,-0.5 117,-0.5 123,-6.5 123,-12.5 123,-12.5 123,-201.5 123,-201.5 123,-207.5 117,-213.5 111,-213.5 111,-213.5 12,-213.5 12,-213.5 6,-213.5 0,-207.5 0,-201.5 0,-201.5 0,-12.5 0,-12.5 0,-6.5 6,-0.5 12,-0.5"/>
<text text-anchor="middle" x="61.5" y="-198.3" font-family="Times,serif" font-size="14.00">AnswersController</text>
<polyline fill="none" stroke="black" points="0,-190.5 123,-190.5 "/>
<text text-anchor="start" x="8" y="-175.3" font-family="Times,serif" font-size="14.00">create</text>
<text text-anchor="start" x="8" y="-160.3" font-family="Times,serif" font-size="14.00">destroy</text>
<text text-anchor="start" x="8" y="-145.3" font-family="Times,serif" font-size="14.00">edit</text>
<text text-anchor="start" x="8" y="-130.3" font-family="Times,serif" font-size="14.00">index</text>
<text text-anchor="start" x="8" y="-115.3" font-family="Times,serif" font-size="14.00">new</text>
<text text-anchor="start" x="8" y="-100.3" font-family="Times,serif" font-size="14.00">show</text>
<text text-anchor="start" x="8" y="-85.3" font-family="Times,serif" font-size="14.00">update</text>
<polyline fill="none" stroke="black" points="0,-77.5 123,-77.5 "/>
<polyline fill="none" stroke="black" points="0,-53.5 123,-53.5 "/>
<text text-anchor="start" x="8" y="-38.3" font-family="Times,serif" font-size="14.00">_layout</text>
<text text-anchor="start" x="8" y="-23.3" font-family="Times,serif" font-size="14.00">answer_params</text>
<text text-anchor="start" x="8" y="-8.3" font-family="Times,serif" font-size="14.00">set_answer</text>
</g>
<!-- ApplicationController -->
<g id="node2" class="node">
<title>ApplicationController</title>
<path fill="none" stroke="black" d="M418.5,-250.5C418.5,-250.5 534.5,-250.5 534.5,-250.5 540.5,-250.5 546.5,-256.5 546.5,-262.5 546.5,-262.5 546.5,-331.5 546.5,-331.5 546.5,-337.5 540.5,-343.5 534.5,-343.5 534.5,-343.5 418.5,-343.5 418.5,-343.5 412.5,-343.5 406.5,-337.5 406.5,-331.5 406.5,-331.5 406.5,-262.5 406.5,-262.5 406.5,-256.5 412.5,-250.5 418.5,-250.5"/>
<text text-anchor="middle" x="476.5" y="-328.3" font-family="Times,serif" font-size="14.00">ApplicationController</text>
<polyline fill="none" stroke="black" points="406.5,-320.5 546.5,-320.5 "/>
<text text-anchor="start" x="414.5" y="-305.3" font-family="Times,serif" font-size="14.00">create</text>
<polyline fill="none" stroke="black" points="406.5,-297.5 546.5,-297.5 "/>
<polyline fill="none" stroke="black" points="406.5,-273.5 546.5,-273.5 "/>
<text text-anchor="start" x="414.5" y="-258.3" font-family="Times,serif" font-size="14.00">_layout</text>
</g>
<!-- ApplicationController&#45;&gt;AnswersController -->
<g id="edge1" class="edge">
<title>ApplicationController&#45;&gt;AnswersController</title>
<path fill="none" stroke="black" d="M406.17,-294.03C332.03,-288.79 214.81,-271.2 132.5,-214 129.23,-211.72 126.06,-209.25 123.01,-206.6"/>
</g>
<!-- FieldsController -->
<g id="node3" class="node">
<title>FieldsController</title>
<path fill="none" stroke="black" d="M153.5,-0.5C153.5,-0.5 237.5,-0.5 237.5,-0.5 243.5,-0.5 249.5,-6.5 249.5,-12.5 249.5,-12.5 249.5,-201.5 249.5,-201.5 249.5,-207.5 243.5,-213.5 237.5,-213.5 237.5,-213.5 153.5,-213.5 153.5,-213.5 147.5,-213.5 141.5,-207.5 141.5,-201.5 141.5,-201.5 141.5,-12.5 141.5,-12.5 141.5,-6.5 147.5,-0.5 153.5,-0.5"/>
<text text-anchor="middle" x="195.5" y="-198.3" font-family="Times,serif" font-size="14.00">FieldsController</text>
<polyline fill="none" stroke="black" points="141.5,-190.5 249.5,-190.5 "/>
<text text-anchor="start" x="149.5" y="-175.3" font-family="Times,serif" font-size="14.00">create</text>
<text text-anchor="start" x="149.5" y="-160.3" font-family="Times,serif" font-size="14.00">destroy</text>
<text text-anchor="start" x="149.5" y="-145.3" font-family="Times,serif" font-size="14.00">edit</text>
<text text-anchor="start" x="149.5" y="-130.3" font-family="Times,serif" font-size="14.00">index</text>
<text text-anchor="start" x="149.5" y="-115.3" font-family="Times,serif" font-size="14.00">new</text>
<text text-anchor="start" x="149.5" y="-100.3" font-family="Times,serif" font-size="14.00">show</text>
<text text-anchor="start" x="149.5" y="-85.3" font-family="Times,serif" font-size="14.00">update</text>
<polyline fill="none" stroke="black" points="141.5,-77.5 249.5,-77.5 "/>
<polyline fill="none" stroke="black" points="141.5,-53.5 249.5,-53.5 "/>
<text text-anchor="start" x="149.5" y="-38.3" font-family="Times,serif" font-size="14.00">_layout</text>
<text text-anchor="start" x="149.5" y="-23.3" font-family="Times,serif" font-size="14.00">field_params</text>
<text text-anchor="start" x="149.5" y="-8.3" font-family="Times,serif" font-size="14.00">set_field</text>
</g>
<!-- ApplicationController&#45;&gt;FieldsController -->
<g id="edge2" class="edge">
<title>ApplicationController&#45;&gt;FieldsController</title>
<path fill="none" stroke="black" d="M406.26,-282.31C360.2,-270.47 300.89,-249.5 258.5,-214 255.55,-211.53 252.7,-208.88 249.95,-206.09"/>
</g>
<!-- QuestionsController -->
<g id="node4" class="node">
<title>QuestionsController</title>
<path fill="none" stroke="black" d="M279.5,-0.5C279.5,-0.5 385.5,-0.5 385.5,-0.5 391.5,-0.5 397.5,-6.5 397.5,-12.5 397.5,-12.5 397.5,-201.5 397.5,-201.5 397.5,-207.5 391.5,-213.5 385.5,-213.5 385.5,-213.5 279.5,-213.5 279.5,-213.5 273.5,-213.5 267.5,-207.5 267.5,-201.5 267.5,-201.5 267.5,-12.5 267.5,-12.5 267.5,-6.5 273.5,-0.5 279.5,-0.5"/>
<text text-anchor="middle" x="332.5" y="-198.3" font-family="Times,serif" font-size="14.00">QuestionsController</text>
<polyline fill="none" stroke="black" points="267.5,-190.5 397.5,-190.5 "/>
<text text-anchor="start" x="275.5" y="-175.3" font-family="Times,serif" font-size="14.00">create</text>
<text text-anchor="start" x="275.5" y="-160.3" font-family="Times,serif" font-size="14.00">destroy</text>
<text text-anchor="start" x="275.5" y="-145.3" font-family="Times,serif" font-size="14.00">edit</text>
<text text-anchor="start" x="275.5" y="-130.3" font-family="Times,serif" font-size="14.00">index</text>
<text text-anchor="start" x="275.5" y="-115.3" font-family="Times,serif" font-size="14.00">new</text>
<text text-anchor="start" x="275.5" y="-100.3" font-family="Times,serif" font-size="14.00">show</text>
<text text-anchor="start" x="275.5" y="-85.3" font-family="Times,serif" font-size="14.00">update</text>
<polyline fill="none" stroke="black" points="267.5,-77.5 397.5,-77.5 "/>
<polyline fill="none" stroke="black" points="267.5,-53.5 397.5,-53.5 "/>
<text text-anchor="start" x="275.5" y="-38.3" font-family="Times,serif" font-size="14.00">_layout</text>
<text text-anchor="start" x="275.5" y="-23.3" font-family="Times,serif" font-size="14.00">question_params</text>
<text text-anchor="start" x="275.5" y="-8.3" font-family="Times,serif" font-size="14.00">set_question</text>
</g>
<!-- ApplicationController&#45;&gt;QuestionsController -->
<g id="edge3" class="edge">
<title>ApplicationController&#45;&gt;QuestionsController</title>
<path fill="none" stroke="black" d="M436.09,-250.25C426.18,-238.61 415.77,-226 406.5,-214 403.55,-210.18 400.57,-206.26 397.59,-202.27"/>
</g>
<!-- SessionsController -->
<g id="node5" class="node">
<title>SessionsController</title>
<path fill="none" stroke="black" d="M427.5,-45.5C427.5,-45.5 525.5,-45.5 525.5,-45.5 531.5,-45.5 537.5,-51.5 537.5,-57.5 537.5,-57.5 537.5,-156.5 537.5,-156.5 537.5,-162.5 531.5,-168.5 525.5,-168.5 525.5,-168.5 427.5,-168.5 427.5,-168.5 421.5,-168.5 415.5,-162.5 415.5,-156.5 415.5,-156.5 415.5,-57.5 415.5,-57.5 415.5,-51.5 421.5,-45.5 427.5,-45.5"/>
<text text-anchor="middle" x="476.5" y="-153.3" font-family="Times,serif" font-size="14.00">SessionsController</text>
<polyline fill="none" stroke="black" points="415.5,-145.5 537.5,-145.5 "/>
<text text-anchor="start" x="423.5" y="-130.3" font-family="Times,serif" font-size="14.00">create</text>
<text text-anchor="start" x="423.5" y="-115.3" font-family="Times,serif" font-size="14.00">destroy</text>
<text text-anchor="start" x="423.5" y="-100.3" font-family="Times,serif" font-size="14.00">new</text>
<polyline fill="none" stroke="black" points="415.5,-92.5 537.5,-92.5 "/>
<polyline fill="none" stroke="black" points="415.5,-68.5 537.5,-68.5 "/>
<text text-anchor="start" x="423.5" y="-53.3" font-family="Times,serif" font-size="14.00">_layout</text>
</g>
<!-- ApplicationController&#45;&gt;SessionsController -->
<g id="edge4" class="edge">
<title>ApplicationController&#45;&gt;SessionsController</title>
<path fill="none" stroke="black" d="M476.5,-250.49C476.5,-225.93 476.5,-195.29 476.5,-168.72"/>
</g>
<!-- StaticController -->
<g id="node6" class="node">
<title>StaticController</title>
<path fill="none" stroke="black" d="M567.5,-53C567.5,-53 649.5,-53 649.5,-53 655.5,-53 661.5,-59 661.5,-65 661.5,-65 661.5,-149 661.5,-149 661.5,-155 655.5,-161 649.5,-161 649.5,-161 567.5,-161 567.5,-161 561.5,-161 555.5,-155 555.5,-149 555.5,-149 555.5,-65 555.5,-65 555.5,-59 561.5,-53 567.5,-53"/>
<text text-anchor="middle" x="608.5" y="-145.8" font-family="Times,serif" font-size="14.00">StaticController</text>
<polyline fill="none" stroke="black" points="555.5,-138 661.5,-138 "/>
<text text-anchor="start" x="563.5" y="-122.8" font-family="Times,serif" font-size="14.00">feed</text>
<text text-anchor="start" x="563.5" y="-107.8" font-family="Times,serif" font-size="14.00">index</text>
<polyline fill="none" stroke="black" points="555.5,-100 661.5,-100 "/>
<polyline fill="none" stroke="black" points="555.5,-76 661.5,-76 "/>
<text text-anchor="start" x="563.5" y="-60.8" font-family="Times,serif" font-size="14.00">_layout</text>
</g>
<!-- ApplicationController&#45;&gt;StaticController -->
<g id="edge5" class="edge">
<title>ApplicationController&#45;&gt;StaticController</title>
<path fill="none" stroke="black" d="M517.96,-250.33C527.74,-238.79 537.82,-226.21 546.5,-214 558.3,-197.4 569.92,-178.44 579.86,-161.18"/>
</g>
<!-- StatisticsController -->
<g id="node7" class="node">
<title>StatisticsController</title>
<path fill="none" stroke="black" d="M692,-0.5C692,-0.5 793,-0.5 793,-0.5 799,-0.5 805,-6.5 805,-12.5 805,-12.5 805,-201.5 805,-201.5 805,-207.5 799,-213.5 793,-213.5 793,-213.5 692,-213.5 692,-213.5 686,-213.5 680,-207.5 680,-201.5 680,-201.5 680,-12.5 680,-12.5 680,-6.5 686,-0.5 692,-0.5"/>
<text text-anchor="middle" x="742.5" y="-198.3" font-family="Times,serif" font-size="14.00">StatisticsController</text>
<polyline fill="none" stroke="black" points="680,-190.5 805,-190.5 "/>
<text text-anchor="start" x="688" y="-175.3" font-family="Times,serif" font-size="14.00">create</text>
<text text-anchor="start" x="688" y="-160.3" font-family="Times,serif" font-size="14.00">destroy</text>
<text text-anchor="start" x="688" y="-145.3" font-family="Times,serif" font-size="14.00">edit</text>
<text text-anchor="start" x="688" y="-130.3" font-family="Times,serif" font-size="14.00">index</text>
<text text-anchor="start" x="688" y="-115.3" font-family="Times,serif" font-size="14.00">new</text>
<text text-anchor="start" x="688" y="-100.3" font-family="Times,serif" font-size="14.00">show</text>
<text text-anchor="start" x="688" y="-85.3" font-family="Times,serif" font-size="14.00">update</text>
<polyline fill="none" stroke="black" points="680,-77.5 805,-77.5 "/>
<polyline fill="none" stroke="black" points="680,-53.5 805,-53.5 "/>
<text text-anchor="start" x="688" y="-38.3" font-family="Times,serif" font-size="14.00">_layout</text>
<text text-anchor="start" x="688" y="-23.3" font-family="Times,serif" font-size="14.00">set_statistic</text>
<text text-anchor="start" x="688" y="-8.3" font-family="Times,serif" font-size="14.00">statistic_params</text>
</g>
<!-- ApplicationController&#45;&gt;StatisticsController -->
<g id="edge6" class="edge">
<title>ApplicationController&#45;&gt;StatisticsController</title>
<path fill="none" stroke="black" d="M546.82,-277.11C586.19,-264.02 634.46,-243.57 670.5,-214 673.6,-211.46 676.61,-208.75 679.55,-205.92"/>
</g>
<!-- UsersController -->
<g id="node8" class="node">
<title>UsersController</title>
<path fill="none" stroke="black" d="M835.5,-0.5C835.5,-0.5 917.5,-0.5 917.5,-0.5 923.5,-0.5 929.5,-6.5 929.5,-12.5 929.5,-12.5 929.5,-201.5 929.5,-201.5 929.5,-207.5 923.5,-213.5 917.5,-213.5 917.5,-213.5 835.5,-213.5 835.5,-213.5 829.5,-213.5 823.5,-207.5 823.5,-201.5 823.5,-201.5 823.5,-12.5 823.5,-12.5 823.5,-6.5 829.5,-0.5 835.5,-0.5"/>
<text text-anchor="middle" x="876.5" y="-198.3" font-family="Times,serif" font-size="14.00">UsersController</text>
<polyline fill="none" stroke="black" points="823.5,-190.5 929.5,-190.5 "/>
<text text-anchor="start" x="831.5" y="-175.3" font-family="Times,serif" font-size="14.00">create</text>
<text text-anchor="start" x="831.5" y="-160.3" font-family="Times,serif" font-size="14.00">destroy</text>
<text text-anchor="start" x="831.5" y="-145.3" font-family="Times,serif" font-size="14.00">edit</text>
<text text-anchor="start" x="831.5" y="-130.3" font-family="Times,serif" font-size="14.00">index</text>
<text text-anchor="start" x="831.5" y="-115.3" font-family="Times,serif" font-size="14.00">new</text>
<text text-anchor="start" x="831.5" y="-100.3" font-family="Times,serif" font-size="14.00">show</text>
<text text-anchor="start" x="831.5" y="-85.3" font-family="Times,serif" font-size="14.00">update</text>
<polyline fill="none" stroke="black" points="823.5,-77.5 929.5,-77.5 "/>
<polyline fill="none" stroke="black" points="823.5,-53.5 929.5,-53.5 "/>
<text text-anchor="start" x="831.5" y="-38.3" font-family="Times,serif" font-size="14.00">_layout</text>
<text text-anchor="start" x="831.5" y="-23.3" font-family="Times,serif" font-size="14.00">set_user</text>
<text text-anchor="start" x="831.5" y="-8.3" font-family="Times,serif" font-size="14.00">user_params</text>
</g>
<!-- ApplicationController&#45;&gt;UsersController -->
<g id="edge7" class="edge">
<title>ApplicationController&#45;&gt;UsersController</title>
<path fill="none" stroke="black" d="M546.65,-294.66C620.1,-289.94 735.54,-272.76 814.5,-214 817.58,-211.71 820.53,-209.22 823.36,-206.56"/>
</g>
</g>
</svg>
