<?xml version="1.0" encoding="UTF-8" standalone="no"?>
<!DOCTYPE svg PUBLIC "-//W3C//DTD SVG 1.1//EN"
 "http://www.w3.org/Graphics/SVG/1.1/DTD/svg11.dtd">
<!-- Generated by graphviz version 2.49.3 (20211023.0002)
 -->
<!-- Title: models_diagram Pages: 1 -->
<svg width="453pt" height="691pt"
 viewBox="0.00 0.00 452.50 691.00" xmlns="http://www.w3.org/2000/svg" xmlns:xlink="http://www.w3.org/1999/xlink">
<g id="graph0" class="graph" transform="scale(1 1) rotate(0) translate(4 687)">
<title>models_diagram</title>
<polygon fill="transparent" stroke="transparent" points="-4,4 -4,-687 448.5,-687 448.5,4 -4,4"/>
<!-- Answer -->
<g id="node1" class="node">
<title>Answer</title>
<path fill="none" stroke="black" d="M218,-489.5C218,-489.5 344,-489.5 344,-489.5 350,-489.5 356,-495.5 356,-501.5 356,-501.5 356,-598.5 356,-598.5 356,-604.5 350,-610.5 344,-610.5 344,-610.5 218,-610.5 218,-610.5 212,-610.5 206,-604.5 206,-598.5 206,-598.5 206,-501.5 206,-501.5 206,-495.5 212,-489.5 218,-489.5"/>
<text text-anchor="middle" x="281" y="-595.3" font-family="Times,serif" font-size="14.00">Answer</text>
<polyline fill="none" stroke="black" points="206,-587.5 356,-587.5 "/>
<text text-anchor="start" x="214" y="-572.3" font-family="Times,serif" font-size="14.00">id :integer</text>
<text text-anchor="start" x="214" y="-557.3" font-family="Times,serif" font-size="14.00">answer :varchar</text>
<text text-anchor="start" x="214" y="-542.3" font-family="Times,serif" font-size="14.00">is_correct :boolean</text>
<text text-anchor="start" x="214" y="-527.3" font-family="Times,serif" font-size="14.00">question_id :integer</text>
<text text-anchor="start" x="214" y="-512.3" font-family="Times,serif" font-size="14.00">created_at :datetime(6)</text>
<text text-anchor="start" x="214" y="-497.3" font-family="Times,serif" font-size="14.00">updated_at :datetime(6)</text>
</g>
<!-- Question -->
<g id="node4" class="node">
<title>Question</title>
<path fill="none" stroke="black" d="M120,-346.5C120,-346.5 246,-346.5 246,-346.5 252,-346.5 258,-352.5 258,-358.5 258,-358.5 258,-440.5 258,-440.5 258,-446.5 252,-452.5 246,-452.5 246,-452.5 120,-452.5 120,-452.5 114,-452.5 108,-446.5 108,-440.5 108,-440.5 108,-358.5 108,-358.5 108,-352.5 114,-346.5 120,-346.5"/>
<text text-anchor="middle" x="183" y="-437.3" font-family="Times,serif" font-size="14.00">Question</text>
<polyline fill="none" stroke="black" points="108,-429.5 258,-429.5 "/>
<text text-anchor="start" x="116" y="-414.3" font-family="Times,serif" font-size="14.00">id :integer</text>
<text text-anchor="start" x="116" y="-399.3" font-family="Times,serif" font-size="14.00">question :varchar</text>
<text text-anchor="start" x="116" y="-384.3" font-family="Times,serif" font-size="14.00">field_id :integer</text>
<text text-anchor="start" x="116" y="-369.3" font-family="Times,serif" font-size="14.00">created_at :datetime(6)</text>
<text text-anchor="start" x="116" y="-354.3" font-family="Times,serif" font-size="14.00">updated_at :datetime(6)</text>
</g>
<!-- Answer&#45;&gt;Question -->
<g id="edge1" class="edge">
<title>Answer&#45;&gt;Question</title>
<path fill="none" stroke="#393d84" d="M236.04,-480.87C231.77,-474.41 227.47,-467.88 223.25,-461.49"/>
<polygon fill="#393d84" stroke="#393d84" points="236.2,-481.11 237.95,-491.93 238.95,-485.28 241.7,-489.46 241.7,-489.46 241.7,-489.46 238.95,-485.28 245.46,-486.98 236.2,-481.11 236.2,-481.11"/>
<polygon fill="#393d84" stroke="#393d84" points="223.07,-461.22 221.32,-450.39 220.32,-457.05 217.56,-452.87 217.56,-452.87 217.56,-452.87 220.32,-457.05 213.81,-455.35 223.07,-461.22 223.07,-461.22"/>
</g>
<!-- Statistic -->
<g id="node5" class="node">
<title>Statistic</title>
<path fill="none" stroke="black" d="M251,-173.5C251,-173.5 377,-173.5 377,-173.5 383,-173.5 389,-179.5 389,-185.5 389,-185.5 389,-297.5 389,-297.5 389,-303.5 383,-309.5 377,-309.5 377,-309.5 251,-309.5 251,-309.5 245,-309.5 239,-303.5 239,-297.5 239,-297.5 239,-185.5 239,-185.5 239,-179.5 245,-173.5 251,-173.5"/>
<text text-anchor="middle" x="314" y="-294.3" font-family="Times,serif" font-size="14.00">Statistic</text>
<polyline fill="none" stroke="black" points="239,-286.5 389,-286.5 "/>
<text text-anchor="start" x="247" y="-271.3" font-family="Times,serif" font-size="14.00">id :integer</text>
<text text-anchor="start" x="247" y="-256.3" font-family="Times,serif" font-size="14.00">pointer :boolean</text>
<text text-anchor="start" x="247" y="-241.3" font-family="Times,serif" font-size="14.00">answer_id :integer</text>
<text text-anchor="start" x="247" y="-226.3" font-family="Times,serif" font-size="14.00">question_id :integer</text>
<text text-anchor="start" x="247" y="-211.3" font-family="Times,serif" font-size="14.00">user_id :integer</text>
<text text-anchor="start" x="247" y="-196.3" font-family="Times,serif" font-size="14.00">created_at :datetime(6)</text>
<text text-anchor="start" x="247" y="-181.3" font-family="Times,serif" font-size="14.00">updated_at :datetime(6)</text>
</g>
<!-- Answer&#45;&gt;Statistic -->
<g id="edge2" class="edge">
<title>Answer&#45;&gt;Statistic</title>
<path fill="none" stroke="#ab81fc" d="M288.54,-478.93C293.65,-431.48 300.41,-368.77 305.67,-319.85"/>
<polygon fill="#ab81fc" stroke="#ab81fc" points="288.51,-479.23 282.97,-488.69 287.98,-484.2 287.44,-489.18 287.44,-489.18 287.44,-489.18 287.98,-484.2 291.92,-489.66 288.51,-479.23 288.51,-479.23"/>
<polygon fill="#ab81fc" stroke="#ab81fc" points="305.7,-319.57 311.25,-310.11 306.24,-314.6 306.77,-309.63 306.77,-309.63 306.77,-309.63 306.24,-314.6 302.3,-309.15 305.7,-319.57 305.7,-319.57"/>
</g>
<!-- ApplicationRecord -->
<g id="node2" class="node">
<title>ApplicationRecord</title>
<ellipse fill="none" stroke="black" cx="281" cy="-665" rx="79.89" ry="18"/>
<text text-anchor="middle" x="281" y="-661.3" font-family="Times,serif" font-size="14.00">ApplicationRecord</text>
</g>
<!-- ApplicationRecord&#45;&gt;Answer -->
<g id="edge3" class="edge">
<title>ApplicationRecord&#45;&gt;Answer</title>
<path fill="none" stroke="black" d="M281,-646.84C281,-636.96 281,-623.9 281,-610.6"/>
</g>
<!-- Field -->
<g id="node3" class="node">
<title>Field</title>
<path fill="none" stroke="black" d="M12,-504.5C12,-504.5 138,-504.5 138,-504.5 144,-504.5 150,-510.5 150,-516.5 150,-516.5 150,-583.5 150,-583.5 150,-589.5 144,-595.5 138,-595.5 138,-595.5 12,-595.5 12,-595.5 6,-595.5 0,-589.5 0,-583.5 0,-583.5 0,-516.5 0,-516.5 0,-510.5 6,-504.5 12,-504.5"/>
<text text-anchor="middle" x="75" y="-580.3" font-family="Times,serif" font-size="14.00">Field</text>
<polyline fill="none" stroke="black" points="0,-572.5 150,-572.5 "/>
<text text-anchor="start" x="8" y="-557.3" font-family="Times,serif" font-size="14.00">id :integer</text>
<text text-anchor="start" x="8" y="-542.3" font-family="Times,serif" font-size="14.00">name :varchar</text>
<text text-anchor="start" x="8" y="-527.3" font-family="Times,serif" font-size="14.00">created_at :datetime(6)</text>
<text text-anchor="start" x="8" y="-512.3" font-family="Times,serif" font-size="14.00">updated_at :datetime(6)</text>
</g>
<!-- ApplicationRecord&#45;&gt;Field -->
<g id="edge5" class="edge">
<title>ApplicationRecord&#45;&gt;Field</title>
<path fill="none" stroke="black" d="M243.6,-648.95C220.23,-639.1 189.8,-625.4 164,-611 155.54,-606.28 146.84,-601 138.36,-595.58"/>
</g>
<!-- ApplicationRecord&#45;&gt;Question -->
<g id="edge7" class="edge">
<title>ApplicationRecord&#45;&gt;Question</title>
<path fill="none" stroke="black" d="M242.29,-649.2C225.44,-640.68 207.24,-628.19 197,-611 168.51,-563.17 168.92,-497.93 173.95,-452.81"/>
</g>
<!-- ApplicationRecord&#45;&gt;Statistic -->
<g id="edge9" class="edge">
<title>ApplicationRecord&#45;&gt;Statistic</title>
<path fill="none" stroke="black" d="M320.66,-649.28C337.5,-640.82 355.42,-628.36 365,-611 417.4,-515.99 379.06,-386.98 346.51,-309.51"/>
</g>
<!-- User -->
<g id="node6" class="node">
<title>User</title>
<path fill="none" stroke="black" d="M297.5,-0.5C297.5,-0.5 432.5,-0.5 432.5,-0.5 438.5,-0.5 444.5,-6.5 444.5,-12.5 444.5,-12.5 444.5,-124.5 444.5,-124.5 444.5,-130.5 438.5,-136.5 432.5,-136.5 432.5,-136.5 297.5,-136.5 297.5,-136.5 291.5,-136.5 285.5,-130.5 285.5,-124.5 285.5,-124.5 285.5,-12.5 285.5,-12.5 285.5,-6.5 291.5,-0.5 297.5,-0.5"/>
<text text-anchor="middle" x="365" y="-121.3" font-family="Times,serif" font-size="14.00">User</text>
<polyline fill="none" stroke="black" points="285.5,-113.5 444.5,-113.5 "/>
<text text-anchor="start" x="293.5" y="-98.3" font-family="Times,serif" font-size="14.00">id :integer</text>
<text text-anchor="start" x="293.5" y="-83.3" font-family="Times,serif" font-size="14.00">username :varchar</text>
<text text-anchor="start" x="293.5" y="-68.3" font-family="Times,serif" font-size="14.00">last_score :integer</text>
<text text-anchor="start" x="293.5" y="-53.3" font-family="Times,serif" font-size="14.00">created_at :datetime(6)</text>
<text text-anchor="start" x="293.5" y="-38.3" font-family="Times,serif" font-size="14.00">updated_at :datetime(6)</text>
<text text-anchor="start" x="293.5" y="-23.3" font-family="Times,serif" font-size="14.00">password_digest :varchar</text>
<text text-anchor="start" x="293.5" y="-8.3" font-family="Times,serif" font-size="14.00">token :varchar</text>
</g>
<!-- ApplicationRecord&#45;&gt;User -->
<g id="edge10" class="edge">
<title>ApplicationRecord&#45;&gt;User</title>
<path fill="none" stroke="black" d="M334.05,-651.5C355.48,-643.6 378.14,-630.96 391,-611 485.59,-464.25 429.44,-245.85 391.35,-136.69"/>
</g>
<!-- Field&#45;&gt;Question -->
<g id="edge4" class="edge">
<title>Field&#45;&gt;Question</title>
<path fill="none" stroke="#8f47d8" d="M113.37,-496.25C121.66,-484.84 130.5,-472.69 139,-461"/>
<polygon fill="#8f47d8" stroke="#8f47d8" points="113.29,-496.36 103.76,-501.8 110.34,-500.4 107.4,-504.45 107.4,-504.45 107.4,-504.45 110.34,-500.4 111.04,-507.09 113.29,-496.36 113.29,-496.36"/>
<polygon fill="#8f47d8" stroke="#8f47d8" points="139.23,-460.69 148.75,-455.25 142.17,-456.64 145.11,-452.6 145.11,-452.6 145.11,-452.6 142.17,-456.64 141.47,-449.95 139.23,-460.69 139.23,-460.69"/>
</g>
<!-- Question&#45;&gt;Statistic -->
<g id="edge6" class="edge">
<title>Question&#45;&gt;Statistic</title>
<path fill="none" stroke="#c88b99" d="M233.52,-338.34C239.18,-331.6 245,-324.67 250.79,-317.77"/>
<polygon fill="#c88b99" stroke="#c88b99" points="233.42,-338.46 223.54,-343.23 230.2,-342.29 226.99,-346.12 226.99,-346.12 226.99,-346.12 230.2,-342.29 230.43,-349.01 233.42,-338.46 233.42,-338.46"/>
<polygon fill="#c88b99" stroke="#c88b99" points="251.14,-317.36 261.01,-312.6 254.35,-313.53 257.57,-309.7 257.57,-309.7 257.57,-309.7 254.35,-313.53 254.12,-306.81 251.14,-317.36 251.14,-317.36"/>
</g>
<!-- Statistic&#45;&gt;User -->
<g id="edge8" class="edge">
<title>Statistic&#45;&gt;User</title>
<path fill="none" stroke="#c7079b" d="M336.91,-163.7C338.63,-157.93 340.36,-152.1 342.09,-146.33"/>
<polygon fill="#c7079b" stroke="#c7079b" points="336.87,-163.82 329.7,-172.12 335.44,-168.62 334.01,-173.41 334.01,-173.41 334.01,-173.41 335.44,-168.62 338.32,-174.69 336.87,-163.82 336.87,-163.82"/>
<polygon fill="#c7079b" stroke="#c7079b" points="342.11,-146.26 349.28,-137.97 343.53,-141.47 344.96,-136.68 344.96,-136.68 344.96,-136.68 343.53,-141.47 340.65,-135.39 342.11,-146.26 342.11,-146.26"/>
</g>
</g>
</svg>
