<?xml version="1.0" encoding="UTF-8" standalone="no"?>
<!DOCTYPE svg PUBLIC "-//W3C//DTD SVG 1.1//EN"
 "http://www.w3.org/Graphics/SVG/1.1/DTD/svg11.dtd">
<!-- Generated by graphviz version 2.49.3 (20211023.0002)
 -->
<!-- Title: controllers_diagram Pages: 1 -->
<svg width="1474pt" height="1378pt"
 viewBox="0.00 0.00 1474.00 1378.00" xmlns="http://www.w3.org/2000/svg" xmlns:xlink="http://www.w3.org/1999/xlink">
<g id="graph0" class="graph" transform="scale(1 1) rotate(0) translate(4 1374)">
<title>controllers_diagram</title>
<polygon fill="transparent" stroke="transparent" points="-4,4 -4,-1374 1470,-1374 1470,4 -4,4"/>
<!-- _diagram_info -->
<g id="node1" class="node">
<title>_diagram_info</title>
<text text-anchor="start" x="1268" y="-1351.6" font-family="Times,serif" font-size="13.00">Controllers diagram</text>
<text text-anchor="start" x="1268" y="-1337.6" font-family="Times,serif" font-size="13.00">Date: Dec 14 2021 &#45; 18:46</text>
<text text-anchor="start" x="1268" y="-1323.6" font-family="Times,serif" font-size="13.00">Migration version: 20211117235206</text>
<text text-anchor="start" x="1268" y="-1309.6" font-family="Times,serif" font-size="13.00">Generated by RailRoady 1.6.0</text>
<text text-anchor="start" x="1268" y="-1295.6" font-family="Times,serif" font-size="13.00">http://railroady.prestonlee.com</text>
</g>
<!-- AnswersController -->
<g id="node2" class="node">
<title>AnswersController</title>
<path fill="none" stroke="black" d="M264,-513.22C264,-513.22 363,-513.22 363,-513.22 369,-513.22 375,-519.22 375,-525.22 375,-525.22 375,-714.22 375,-714.22 375,-720.22 369,-726.22 363,-726.22 363,-726.22 264,-726.22 264,-726.22 258,-726.22 252,-720.22 252,-714.22 252,-714.22 252,-525.22 252,-525.22 252,-519.22 258,-513.22 264,-513.22"/>
<text text-anchor="middle" x="313.5" y="-711.02" font-family="Times,serif" font-size="14.00">AnswersController</text>
<polyline fill="none" stroke="black" points="252,-703.22 375,-703.22 "/>
<text text-anchor="start" x="260" y="-688.02" font-family="Times,serif" font-size="14.00">create</text>
<text text-anchor="start" x="260" y="-673.02" font-family="Times,serif" font-size="14.00">destroy</text>
<text text-anchor="start" x="260" y="-658.02" font-family="Times,serif" font-size="14.00">edit</text>
<text text-anchor="start" x="260" y="-643.02" font-family="Times,serif" font-size="14.00">index</text>
<text text-anchor="start" x="260" y="-628.02" font-family="Times,serif" font-size="14.00">new</text>
<text text-anchor="start" x="260" y="-613.02" font-family="Times,serif" font-size="14.00">show</text>
<text text-anchor="start" x="260" y="-598.02" font-family="Times,serif" font-size="14.00">update</text>
<polyline fill="none" stroke="black" points="252,-590.22 375,-590.22 "/>
<polyline fill="none" stroke="black" points="252,-566.22 375,-566.22 "/>
<text text-anchor="start" x="260" y="-551.02" font-family="Times,serif" font-size="14.00">_layout</text>
<text text-anchor="start" x="260" y="-536.02" font-family="Times,serif" font-size="14.00">answer_params</text>
<text text-anchor="start" x="260" y="-521.02" font-family="Times,serif" font-size="14.00">set_answer</text>
</g>
<!-- ApplicationController -->
<g id="node3" class="node">
<title>ApplicationController</title>
<path fill="none" stroke="black" d="M551.16,-595.39C551.16,-595.39 667.16,-595.39 667.16,-595.39 673.16,-595.39 679.16,-601.39 679.16,-607.39 679.16,-607.39 679.16,-676.39 679.16,-676.39 679.16,-682.39 673.16,-688.39 667.16,-688.39 667.16,-688.39 551.16,-688.39 551.16,-688.39 545.16,-688.39 539.16,-682.39 539.16,-676.39 539.16,-676.39 539.16,-607.39 539.16,-607.39 539.16,-601.39 545.16,-595.39 551.16,-595.39"/>
<text text-anchor="middle" x="609.16" y="-673.19" font-family="Times,serif" font-size="14.00">ApplicationController</text>
<polyline fill="none" stroke="black" points="539.16,-665.39 679.16,-665.39 "/>
<text text-anchor="start" x="547.16" y="-650.19" font-family="Times,serif" font-size="14.00">create</text>
<polyline fill="none" stroke="black" points="539.16,-642.39 679.16,-642.39 "/>
<polyline fill="none" stroke="black" points="539.16,-618.39 679.16,-618.39 "/>
<text text-anchor="start" x="547.16" y="-603.19" font-family="Times,serif" font-size="14.00">_layout</text>
</g>
<!-- ApplicationController&#45;&gt;AnswersController -->
<g id="edge1" class="edge">
<title>ApplicationController&#45;&gt;AnswersController</title>
<path fill="none" stroke="black" d="M539.09,-636.64C489.23,-632.9 422.87,-627.92 375.04,-624.33"/>
</g>
<!-- FieldsController -->
<g id="node4" class="node">
<title>FieldsController</title>
<path fill="none" stroke="black" d="M654.24,-252.5C654.24,-252.5 738.24,-252.5 738.24,-252.5 744.24,-252.5 750.24,-258.5 750.24,-264.5 750.24,-264.5 750.24,-453.5 750.24,-453.5 750.24,-459.5 744.24,-465.5 738.24,-465.5 738.24,-465.5 654.24,-465.5 654.24,-465.5 648.24,-465.5 642.24,-459.5 642.24,-453.5 642.24,-453.5 642.24,-264.5 642.24,-264.5 642.24,-258.5 648.24,-252.5 654.24,-252.5"/>
<text text-anchor="middle" x="696.24" y="-450.3" font-family="Times,serif" font-size="14.00">FieldsController</text>
<polyline fill="none" stroke="black" points="642.24,-442.5 750.24,-442.5 "/>
<text text-anchor="start" x="650.24" y="-427.3" font-family="Times,serif" font-size="14.00">create</text>
<text text-anchor="start" x="650.24" y="-412.3" font-family="Times,serif" font-size="14.00">destroy</text>
<text text-anchor="start" x="650.24" y="-397.3" font-family="Times,serif" font-size="14.00">edit</text>
<text text-anchor="start" x="650.24" y="-382.3" font-family="Times,serif" font-size="14.00">index</text>
<text text-anchor="start" x="650.24" y="-367.3" font-family="Times,serif" font-size="14.00">new</text>
<text text-anchor="start" x="650.24" y="-352.3" font-family="Times,serif" font-size="14.00">show</text>
<text text-anchor="start" x="650.24" y="-337.3" font-family="Times,serif" font-size="14.00">update</text>
<polyline fill="none" stroke="black" points="642.24,-329.5 750.24,-329.5 "/>
<polyline fill="none" stroke="black" points="642.24,-305.5 750.24,-305.5 "/>
<text text-anchor="start" x="650.24" y="-290.3" font-family="Times,serif" font-size="14.00">_layout</text>
<text text-anchor="start" x="650.24" y="-275.3" font-family="Times,serif" font-size="14.00">field_params</text>
<text text-anchor="start" x="650.24" y="-260.3" font-family="Times,serif" font-size="14.00">set_field</text>
</g>
<!-- ApplicationController&#45;&gt;FieldsController -->
<g id="edge2" class="edge">
<title>ApplicationController&#45;&gt;FieldsController</title>
<path fill="none" stroke="black" d="M623.54,-595.18C634.36,-560.02 649.63,-510.42 663.38,-465.75"/>
</g>
<!-- QuestionsController -->
<g id="node5" class="node">
<title>QuestionsController</title>
<path fill="none" stroke="black" d="M596.16,-829.03C596.16,-829.03 702.16,-829.03 702.16,-829.03 708.16,-829.03 714.16,-835.03 714.16,-841.03 714.16,-841.03 714.16,-1030.03 714.16,-1030.03 714.16,-1036.03 708.16,-1042.03 702.16,-1042.03 702.16,-1042.03 596.16,-1042.03 596.16,-1042.03 590.16,-1042.03 584.16,-1036.03 584.16,-1030.03 584.16,-1030.03 584.16,-841.03 584.16,-841.03 584.16,-835.03 590.16,-829.03 596.16,-829.03"/>
<text text-anchor="middle" x="649.16" y="-1026.83" font-family="Times,serif" font-size="14.00">QuestionsController</text>
<polyline fill="none" stroke="black" points="584.16,-1019.03 714.16,-1019.03 "/>
<text text-anchor="start" x="592.16" y="-1003.83" font-family="Times,serif" font-size="14.00">create</text>
<text text-anchor="start" x="592.16" y="-988.83" font-family="Times,serif" font-size="14.00">destroy</text>
<text text-anchor="start" x="592.16" y="-973.83" font-family="Times,serif" font-size="14.00">edit</text>
<text text-anchor="start" x="592.16" y="-958.83" font-family="Times,serif" font-size="14.00">index</text>
<text text-anchor="start" x="592.16" y="-943.83" font-family="Times,serif" font-size="14.00">new</text>
<text text-anchor="start" x="592.16" y="-928.83" font-family="Times,serif" font-size="14.00">show</text>
<text text-anchor="start" x="592.16" y="-913.83" font-family="Times,serif" font-size="14.00">update</text>
<polyline fill="none" stroke="black" points="584.16,-906.03 714.16,-906.03 "/>
<polyline fill="none" stroke="black" points="584.16,-882.03 714.16,-882.03 "/>
<text text-anchor="start" x="592.16" y="-866.83" font-family="Times,serif" font-size="14.00">_layout</text>
<text text-anchor="start" x="592.16" y="-851.83" font-family="Times,serif" font-size="14.00">question_params</text>
<text text-anchor="start" x="592.16" y="-836.83" font-family="Times,serif" font-size="14.00">set_question</text>
</g>
<!-- ApplicationController&#45;&gt;QuestionsController -->
<g id="edge3" class="edge">
<title>ApplicationController&#45;&gt;QuestionsController</title>
<path fill="none" stroke="black" d="M615.5,-688.42C620.63,-726.1 628.07,-780.66 634.64,-828.93"/>
</g>
<!-- SessionsController -->
<g id="node6" class="node">
<title>SessionsController</title>
<path fill="none" stroke="black" d="M814.61,-731.81C814.61,-731.81 912.61,-731.81 912.61,-731.81 918.61,-731.81 924.61,-737.81 924.61,-743.81 924.61,-743.81 924.61,-842.81 924.61,-842.81 924.61,-848.81 918.61,-854.81 912.61,-854.81 912.61,-854.81 814.61,-854.81 814.61,-854.81 808.61,-854.81 802.61,-848.81 802.61,-842.81 802.61,-842.81 802.61,-743.81 802.61,-743.81 802.61,-737.81 808.61,-731.81 814.61,-731.81"/>
<text text-anchor="middle" x="863.61" y="-839.61" font-family="Times,serif" font-size="14.00">SessionsController</text>
<polyline fill="none" stroke="black" points="802.61,-831.81 924.61,-831.81 "/>
<text text-anchor="start" x="810.61" y="-816.61" font-family="Times,serif" font-size="14.00">create</text>
<text text-anchor="start" x="810.61" y="-801.61" font-family="Times,serif" font-size="14.00">destroy</text>
<text text-anchor="start" x="810.61" y="-786.61" font-family="Times,serif" font-size="14.00">new</text>
<polyline fill="none" stroke="black" points="802.61,-778.81 924.61,-778.81 "/>
<polyline fill="none" stroke="black" points="802.61,-754.81 924.61,-754.81 "/>
<text text-anchor="start" x="810.61" y="-739.61" font-family="Times,serif" font-size="14.00">_layout</text>
</g>
<!-- ApplicationController&#45;&gt;SessionsController -->
<g id="edge4" class="edge">
<title>ApplicationController&#45;&gt;SessionsController</title>
<path fill="none" stroke="black" d="M679.36,-683.67C717.9,-706.6 765.25,-734.77 802.29,-756.82"/>
</g>
<!-- StaticController -->
<g id="node7" class="node">
<title>StaticController</title>
<path fill="none" stroke="black" d="M364.95,-803.55C364.95,-803.55 446.95,-803.55 446.95,-803.55 452.95,-803.55 458.95,-809.55 458.95,-815.55 458.95,-815.55 458.95,-899.55 458.95,-899.55 458.95,-905.55 452.95,-911.55 446.95,-911.55 446.95,-911.55 364.95,-911.55 364.95,-911.55 358.95,-911.55 352.95,-905.55 352.95,-899.55 352.95,-899.55 352.95,-815.55 352.95,-815.55 352.95,-809.55 358.95,-803.55 364.95,-803.55"/>
<text text-anchor="middle" x="405.95" y="-896.35" font-family="Times,serif" font-size="14.00">StaticController</text>
<polyline fill="none" stroke="black" points="352.95,-888.55 458.95,-888.55 "/>
<text text-anchor="start" x="360.95" y="-873.35" font-family="Times,serif" font-size="14.00">feed</text>
<text text-anchor="start" x="360.95" y="-858.35" font-family="Times,serif" font-size="14.00">index</text>
<polyline fill="none" stroke="black" points="352.95,-850.55 458.95,-850.55 "/>
<polyline fill="none" stroke="black" points="352.95,-826.55 458.95,-826.55 "/>
<text text-anchor="start" x="360.95" y="-811.35" font-family="Times,serif" font-size="14.00">_layout</text>
</g>
<!-- ApplicationController&#45;&gt;StaticController -->
<g id="edge5" class="edge">
<title>ApplicationController&#45;&gt;StaticController</title>
<path fill="none" stroke="black" d="M565.32,-688.42C533.46,-722.23 490.27,-768.07 456.88,-803.5"/>
</g>
<!-- StatisticsController -->
<g id="node8" class="node">
<title>StatisticsController</title>
<path fill="none" stroke="black" d="M391.01,-291.19C391.01,-291.19 492.01,-291.19 492.01,-291.19 498.01,-291.19 504.01,-297.19 504.01,-303.19 504.01,-303.19 504.01,-492.19 504.01,-492.19 504.01,-498.19 498.01,-504.19 492.01,-504.19 492.01,-504.19 391.01,-504.19 391.01,-504.19 385.01,-504.19 379.01,-498.19 379.01,-492.19 379.01,-492.19 379.01,-303.19 379.01,-303.19 379.01,-297.19 385.01,-291.19 391.01,-291.19"/>
<text text-anchor="middle" x="441.51" y="-488.99" font-family="Times,serif" font-size="14.00">StatisticsController</text>
<polyline fill="none" stroke="black" points="379.01,-481.19 504.01,-481.19 "/>
<text text-anchor="start" x="387.01" y="-465.99" font-family="Times,serif" font-size="14.00">create</text>
<text text-anchor="start" x="387.01" y="-450.99" font-family="Times,serif" font-size="14.00">destroy</text>
<text text-anchor="start" x="387.01" y="-435.99" font-family="Times,serif" font-size="14.00">edit</text>
<text text-anchor="start" x="387.01" y="-420.99" font-family="Times,serif" font-size="14.00">index</text>
<text text-anchor="start" x="387.01" y="-405.99" font-family="Times,serif" font-size="14.00">new</text>
<text text-anchor="start" x="387.01" y="-390.99" font-family="Times,serif" font-size="14.00">show</text>
<text text-anchor="start" x="387.01" y="-375.99" font-family="Times,serif" font-size="14.00">update</text>
<polyline fill="none" stroke="black" points="379.01,-368.19 504.01,-368.19 "/>
<polyline fill="none" stroke="black" points="379.01,-344.19 504.01,-344.19 "/>
<text text-anchor="start" x="387.01" y="-328.99" font-family="Times,serif" font-size="14.00">_layout</text>
<text text-anchor="start" x="387.01" y="-313.99" font-family="Times,serif" font-size="14.00">set_statistic</text>
<text text-anchor="start" x="387.01" y="-298.99" font-family="Times,serif" font-size="14.00">statistic_params</text>
</g>
<!-- ApplicationController&#45;&gt;StatisticsController -->
<g id="edge6" class="edge">
<title>ApplicationController&#45;&gt;StatisticsController</title>
<path fill="none" stroke="black" d="M577.23,-595.38C556.57,-565.29 528.97,-525.09 504.06,-488.8"/>
</g>
<!-- UsersController -->
<g id="node9" class="node">
<title>UsersController</title>
<path fill="none" stroke="black" d="M844.38,-429.15C844.38,-429.15 926.38,-429.15 926.38,-429.15 932.38,-429.15 938.38,-435.15 938.38,-441.15 938.38,-441.15 938.38,-630.15 938.38,-630.15 938.38,-636.15 932.38,-642.15 926.38,-642.15 926.38,-642.15 844.38,-642.15 844.38,-642.15 838.38,-642.15 832.38,-636.15 832.38,-630.15 832.38,-630.15 832.38,-441.15 832.38,-441.15 832.38,-435.15 838.38,-429.15 844.38,-429.15"/>
<text text-anchor="middle" x="885.38" y="-626.95" font-family="Times,serif" font-size="14.00">UsersController</text>
<polyline fill="none" stroke="black" points="832.38,-619.15 938.38,-619.15 "/>
<text text-anchor="start" x="840.38" y="-603.95" font-family="Times,serif" font-size="14.00">create</text>
<text text-anchor="start" x="840.38" y="-588.95" font-family="Times,serif" font-size="14.00">destroy</text>
<text text-anchor="start" x="840.38" y="-573.95" font-family="Times,serif" font-size="14.00">edit</text>
<text text-anchor="start" x="840.38" y="-558.95" font-family="Times,serif" font-size="14.00">index</text>
<text text-anchor="start" x="840.38" y="-543.95" font-family="Times,serif" font-size="14.00">new</text>
<text text-anchor="start" x="840.38" y="-528.95" font-family="Times,serif" font-size="14.00">show</text>
<text text-anchor="start" x="840.38" y="-513.95" font-family="Times,serif" font-size="14.00">update</text>
<polyline fill="none" stroke="black" points="832.38,-506.15 938.38,-506.15 "/>
<polyline fill="none" stroke="black" points="832.38,-482.15 938.38,-482.15 "/>
<text text-anchor="start" x="840.38" y="-466.95" font-family="Times,serif" font-size="14.00">_layout</text>
<text text-anchor="start" x="840.38" y="-451.95" font-family="Times,serif" font-size="14.00">set_user</text>
<text text-anchor="start" x="840.38" y="-436.95" font-family="Times,serif" font-size="14.00">user_params</text>
</g>
<!-- ApplicationController&#45;&gt;UsersController -->
<g id="edge7" class="edge">
<title>ApplicationController&#45;&gt;UsersController</title>
<path fill="none" stroke="black" d="M679.22,-614.95C726.69,-596.69 788.46,-572.93 831.96,-556.2"/>
</g>
<!-- ActiveStorage::BaseController -->
<g id="node10" class="node">
<title>ActiveStorage::BaseController</title>
<path fill="none" stroke="black" d="M12,-616.5C12,-616.5 177,-616.5 177,-616.5 183,-616.5 189,-622.5 189,-628.5 189,-628.5 189,-713.5 189,-713.5 189,-719.5 183,-725.5 177,-725.5 177,-725.5 12,-725.5 12,-725.5 6,-725.5 0,-719.5 0,-713.5 0,-713.5 0,-628.5 0,-628.5 0,-622.5 6,-616.5 12,-616.5"/>
<text text-anchor="middle" x="94.5" y="-710.3" font-family="Times,serif" font-size="14.00">ActiveStorage::BaseController</text>
<polyline fill="none" stroke="black" points="0,-702.5 189,-702.5 "/>
<polyline fill="none" stroke="black" points="0,-678.5 189,-678.5 "/>
<polyline fill="none" stroke="black" points="0,-654.5 189,-654.5 "/>
<text text-anchor="start" x="8" y="-639.3" font-family="Times,serif" font-size="14.00">_layout</text>
<text text-anchor="start" x="8" y="-624.3" font-family="Times,serif" font-size="14.00">stream</text>
</g>
<!-- ActiveStorage::Blobs::ProxyController -->
<g id="node11" class="node">
<title>ActiveStorage::Blobs::ProxyController</title>
<path fill="none" stroke="black" d="M740,-0.5C740,-0.5 952,-0.5 952,-0.5 958,-0.5 964,-6.5 964,-12.5 964,-12.5 964,-81.5 964,-81.5 964,-87.5 958,-93.5 952,-93.5 952,-93.5 740,-93.5 740,-93.5 734,-93.5 728,-87.5 728,-81.5 728,-81.5 728,-12.5 728,-12.5 728,-6.5 734,-0.5 740,-0.5"/>
<text text-anchor="middle" x="846" y="-78.3" font-family="Times,serif" font-size="14.00">ActiveStorage::Blobs::ProxyController</text>
<polyline fill="none" stroke="black" points="728,-70.5 964,-70.5 "/>
<text text-anchor="start" x="736" y="-55.3" font-family="Times,serif" font-size="14.00">show</text>
<polyline fill="none" stroke="black" points="728,-47.5 964,-47.5 "/>
<polyline fill="none" stroke="black" points="728,-23.5 964,-23.5 "/>
<text text-anchor="start" x="736" y="-8.3" font-family="Times,serif" font-size="14.00">_layout</text>
</g>
<!-- ActiveStorage::Blobs::RedirectController -->
<g id="node12" class="node">
<title>ActiveStorage::Blobs::RedirectController</title>
<path fill="none" stroke="black" d="M796,-1260.5C796,-1260.5 1022,-1260.5 1022,-1260.5 1028,-1260.5 1034,-1266.5 1034,-1272.5 1034,-1272.5 1034,-1341.5 1034,-1341.5 1034,-1347.5 1028,-1353.5 1022,-1353.5 1022,-1353.5 796,-1353.5 796,-1353.5 790,-1353.5 784,-1347.5 784,-1341.5 784,-1341.5 784,-1272.5 784,-1272.5 784,-1266.5 790,-1260.5 796,-1260.5"/>
<text text-anchor="middle" x="909" y="-1338.3" font-family="Times,serif" font-size="14.00">ActiveStorage::Blobs::RedirectController</text>
<polyline fill="none" stroke="black" points="784,-1330.5 1034,-1330.5 "/>
<text text-anchor="start" x="792" y="-1315.3" font-family="Times,serif" font-size="14.00">show</text>
<polyline fill="none" stroke="black" points="784,-1307.5 1034,-1307.5 "/>
<polyline fill="none" stroke="black" points="784,-1283.5 1034,-1283.5 "/>
<text text-anchor="start" x="792" y="-1268.3" font-family="Times,serif" font-size="14.00">_layout</text>
</g>
<!-- ActiveStorage::DirectUploadsController -->
<g id="node13" class="node">
<title>ActiveStorage::DirectUploadsController</title>
<path fill="none" stroke="black" d="M68,-784.5C68,-784.5 288,-784.5 288,-784.5 294,-784.5 300,-790.5 300,-796.5 300,-796.5 300,-895.5 300,-895.5 300,-901.5 294,-907.5 288,-907.5 288,-907.5 68,-907.5 68,-907.5 62,-907.5 56,-901.5 56,-895.5 56,-895.5 56,-796.5 56,-796.5 56,-790.5 62,-784.5 68,-784.5"/>
<text text-anchor="middle" x="178" y="-892.3" font-family="Times,serif" font-size="14.00">ActiveStorage::DirectUploadsController</text>
<polyline fill="none" stroke="black" points="56,-884.5 300,-884.5 "/>
<text text-anchor="start" x="64" y="-869.3" font-family="Times,serif" font-size="14.00">create</text>
<polyline fill="none" stroke="black" points="56,-861.5 300,-861.5 "/>
<polyline fill="none" stroke="black" points="56,-837.5 300,-837.5 "/>
<text text-anchor="start" x="64" y="-822.3" font-family="Times,serif" font-size="14.00">_layout</text>
<text text-anchor="start" x="64" y="-807.3" font-family="Times,serif" font-size="14.00">blob_args</text>
<text text-anchor="start" x="64" y="-792.3" font-family="Times,serif" font-size="14.00">direct_upload_json</text>
</g>
<!-- ActiveStorage::DiskController -->
<g id="node14" class="node">
<title>ActiveStorage::DiskController</title>
<path fill="none" stroke="black" d="M152,-308.5C152,-308.5 316,-308.5 316,-308.5 322,-308.5 328,-314.5 328,-320.5 328,-320.5 328,-464.5 328,-464.5 328,-470.5 322,-476.5 316,-476.5 316,-476.5 152,-476.5 152,-476.5 146,-476.5 140,-470.5 140,-464.5 140,-464.5 140,-320.5 140,-320.5 140,-314.5 146,-308.5 152,-308.5"/>
<text text-anchor="middle" x="234" y="-461.3" font-family="Times,serif" font-size="14.00">ActiveStorage::DiskController</text>
<polyline fill="none" stroke="black" points="140,-453.5 328,-453.5 "/>
<text text-anchor="start" x="148" y="-438.3" font-family="Times,serif" font-size="14.00">show</text>
<text text-anchor="start" x="148" y="-423.3" font-family="Times,serif" font-size="14.00">update</text>
<polyline fill="none" stroke="black" points="140,-415.5 328,-415.5 "/>
<polyline fill="none" stroke="black" points="140,-391.5 328,-391.5 "/>
<text text-anchor="start" x="148" y="-376.3" font-family="Times,serif" font-size="14.00">_layout</text>
<text text-anchor="start" x="148" y="-361.3" font-family="Times,serif" font-size="14.00">acceptable_content?</text>
<text text-anchor="start" x="148" y="-346.3" font-family="Times,serif" font-size="14.00">decode_verified_key</text>
<text text-anchor="start" x="148" y="-331.3" font-family="Times,serif" font-size="14.00">decode_verified_token</text>
<text text-anchor="start" x="148" y="-316.3" font-family="Times,serif" font-size="14.00">named_disk_service</text>
</g>
<!-- ActiveStorage::Representations::BaseController -->
<g id="node15" class="node">
<title>ActiveStorage::Representations::BaseController</title>
<path fill="none" stroke="black" d="M124,-1148.5C124,-1148.5 386,-1148.5 386,-1148.5 392,-1148.5 398,-1154.5 398,-1160.5 398,-1160.5 398,-1245.5 398,-1245.5 398,-1251.5 392,-1257.5 386,-1257.5 386,-1257.5 124,-1257.5 124,-1257.5 118,-1257.5 112,-1251.5 112,-1245.5 112,-1245.5 112,-1160.5 112,-1160.5 112,-1154.5 118,-1148.5 124,-1148.5"/>
<text text-anchor="middle" x="255" y="-1242.3" font-family="Times,serif" font-size="14.00">ActiveStorage::Representations::BaseController</text>
<polyline fill="none" stroke="black" points="112,-1234.5 398,-1234.5 "/>
<polyline fill="none" stroke="black" points="112,-1210.5 398,-1210.5 "/>
<polyline fill="none" stroke="black" points="112,-1186.5 398,-1186.5 "/>
<text text-anchor="start" x="120" y="-1171.3" font-family="Times,serif" font-size="14.00">_layout</text>
<text text-anchor="start" x="120" y="-1156.3" font-family="Times,serif" font-size="14.00">set_representation</text>
</g>
<!-- ActiveStorage::Representations::ProxyController -->
<g id="node16" class="node">
<title>ActiveStorage::Representations::ProxyController</title>
<path fill="none" stroke="black" d="M824,-140.5C824,-140.5 1093,-140.5 1093,-140.5 1099,-140.5 1105,-146.5 1105,-152.5 1105,-152.5 1105,-221.5 1105,-221.5 1105,-227.5 1099,-233.5 1093,-233.5 1093,-233.5 824,-233.5 824,-233.5 818,-233.5 812,-227.5 812,-221.5 812,-221.5 812,-152.5 812,-152.5 812,-146.5 818,-140.5 824,-140.5"/>
<text text-anchor="middle" x="958.5" y="-218.3" font-family="Times,serif" font-size="14.00">ActiveStorage::Representations::ProxyController</text>
<polyline fill="none" stroke="black" points="812,-210.5 1105,-210.5 "/>
<text text-anchor="start" x="820" y="-195.3" font-family="Times,serif" font-size="14.00">show</text>
<polyline fill="none" stroke="black" points="812,-187.5 1105,-187.5 "/>
<polyline fill="none" stroke="black" points="812,-163.5 1105,-163.5 "/>
<text text-anchor="start" x="820" y="-148.3" font-family="Times,serif" font-size="14.00">_layout</text>
</g>
<!-- ActiveStorage::Representations::RedirectController -->
<g id="node17" class="node">
<title>ActiveStorage::Representations::RedirectController</title>
<path fill="none" stroke="black" d="M1160,-112.5C1160,-112.5 1443,-112.5 1443,-112.5 1449,-112.5 1455,-118.5 1455,-124.5 1455,-124.5 1455,-193.5 1455,-193.5 1455,-199.5 1449,-205.5 1443,-205.5 1443,-205.5 1160,-205.5 1160,-205.5 1154,-205.5 1148,-199.5 1148,-193.5 1148,-193.5 1148,-124.5 1148,-124.5 1148,-118.5 1154,-112.5 1160,-112.5"/>
<text text-anchor="middle" x="1301.5" y="-190.3" font-family="Times,serif" font-size="14.00">ActiveStorage::Representations::RedirectController</text>
<polyline fill="none" stroke="black" points="1148,-182.5 1455,-182.5 "/>
<text text-anchor="start" x="1156" y="-167.3" font-family="Times,serif" font-size="14.00">show</text>
<polyline fill="none" stroke="black" points="1148,-159.5 1455,-159.5 "/>
<polyline fill="none" stroke="black" points="1148,-135.5 1455,-135.5 "/>
<text text-anchor="start" x="1156" y="-120.3" font-family="Times,serif" font-size="14.00">_layout</text>
</g>
<!-- ActionMailbox::BaseController -->
<g id="node18" class="node">
<title>ActionMailbox::BaseController</title>
<path fill="none" stroke="black" d="M488,-56.5C488,-56.5 659,-56.5 659,-56.5 665,-56.5 671,-62.5 671,-68.5 671,-68.5 671,-198.5 671,-198.5 671,-204.5 665,-210.5 659,-210.5 659,-210.5 488,-210.5 488,-210.5 482,-210.5 476,-204.5 476,-198.5 476,-198.5 476,-68.5 476,-68.5 476,-62.5 482,-56.5 488,-56.5"/>
<text text-anchor="middle" x="573.5" y="-195.3" font-family="Times,serif" font-size="14.00">ActionMailbox::BaseController</text>
<polyline fill="none" stroke="black" points="476,-187.5 671,-187.5 "/>
<polyline fill="none" stroke="black" points="476,-163.5 671,-163.5 "/>
<polyline fill="none" stroke="black" points="476,-139.5 671,-139.5 "/>
<text text-anchor="start" x="484" y="-124.3" font-family="Times,serif" font-size="14.00">_layout</text>
<text text-anchor="start" x="484" y="-109.3" font-family="Times,serif" font-size="14.00">authenticate_by_password</text>
<text text-anchor="start" x="484" y="-94.3" font-family="Times,serif" font-size="14.00">ensure_configured</text>
<text text-anchor="start" x="484" y="-79.3" font-family="Times,serif" font-size="14.00">ingress_name</text>
<text text-anchor="start" x="484" y="-64.3" font-family="Times,serif" font-size="14.00">password</text>
</g>
<!-- ActionMailbox::Ingresses::Mailgun::InboundEmailsController -->
<g id="node19" class="node">
<title>ActionMailbox::Ingresses::Mailgun::InboundEmailsController</title>
<path fill="none" stroke="black" d="M992,-280.5C992,-280.5 1336,-280.5 1336,-280.5 1342,-280.5 1348,-286.5 1348,-292.5 1348,-292.5 1348,-421.5 1348,-421.5 1348,-427.5 1342,-433.5 1336,-433.5 1336,-433.5 992,-433.5 992,-433.5 986,-433.5 980,-427.5 980,-421.5 980,-421.5 980,-292.5 980,-292.5 980,-286.5 986,-280.5 992,-280.5"/>
<text text-anchor="middle" x="1164" y="-418.3" font-family="Times,serif" font-size="14.00">ActionMailbox::Ingresses::Mailgun::InboundEmailsController</text>
<polyline fill="none" stroke="black" points="980,-410.5 1348,-410.5 "/>
<text text-anchor="start" x="988" y="-395.3" font-family="Times,serif" font-size="14.00">create</text>
<polyline fill="none" stroke="black" points="980,-387.5 1348,-387.5 "/>
<polyline fill="none" stroke="black" points="980,-363.5 1348,-363.5 "/>
<text text-anchor="start" x="988" y="-348.3" font-family="Times,serif" font-size="14.00">_layout</text>
<text text-anchor="start" x="988" y="-333.3" font-family="Times,serif" font-size="14.00">authenticate</text>
<text text-anchor="start" x="988" y="-318.3" font-family="Times,serif" font-size="14.00">authenticated?</text>
<text text-anchor="start" x="988" y="-303.3" font-family="Times,serif" font-size="14.00">key</text>
<text text-anchor="start" x="988" y="-288.3" font-family="Times,serif" font-size="14.00">mail</text>
</g>
<!-- ActionMailbox::Ingresses::Mandrill::InboundEmailsController -->
<g id="node20" class="node">
<title>ActionMailbox::Ingresses::Mandrill::InboundEmailsController</title>
<path fill="none" stroke="black" d="M880,-896.5C880,-896.5 1226,-896.5 1226,-896.5 1232,-896.5 1238,-902.5 1238,-908.5 1238,-908.5 1238,-1067.5 1238,-1067.5 1238,-1073.5 1232,-1079.5 1226,-1079.5 1226,-1079.5 880,-1079.5 880,-1079.5 874,-1079.5 868,-1073.5 868,-1067.5 868,-1067.5 868,-908.5 868,-908.5 868,-902.5 874,-896.5 880,-896.5"/>
<text text-anchor="middle" x="1053" y="-1064.3" font-family="Times,serif" font-size="14.00">ActionMailbox::Ingresses::Mandrill::InboundEmailsController</text>
<polyline fill="none" stroke="black" points="868,-1056.5 1238,-1056.5 "/>
<text text-anchor="start" x="876" y="-1041.3" font-family="Times,serif" font-size="14.00">create</text>
<text text-anchor="start" x="876" y="-1026.3" font-family="Times,serif" font-size="14.00">health_check</text>
<polyline fill="none" stroke="black" points="868,-1018.5 1238,-1018.5 "/>
<polyline fill="none" stroke="black" points="868,-994.5 1238,-994.5 "/>
<text text-anchor="start" x="876" y="-979.3" font-family="Times,serif" font-size="14.00">_layout</text>
<text text-anchor="start" x="876" y="-964.3" font-family="Times,serif" font-size="14.00">authenticate</text>
<text text-anchor="start" x="876" y="-949.3" font-family="Times,serif" font-size="14.00">authenticated?</text>
<text text-anchor="start" x="876" y="-934.3" font-family="Times,serif" font-size="14.00">events</text>
<text text-anchor="start" x="876" y="-919.3" font-family="Times,serif" font-size="14.00">key</text>
<text text-anchor="start" x="876" y="-904.3" font-family="Times,serif" font-size="14.00">raw_emails</text>
</g>
<!-- ActionMailbox::Ingresses::Postmark::InboundEmailsController -->
<g id="node21" class="node">
<title>ActionMailbox::Ingresses::Postmark::InboundEmailsController</title>
<path fill="none" stroke="black" d="M180,-952.5C180,-952.5 529,-952.5 529,-952.5 535,-952.5 541,-958.5 541,-964.5 541,-964.5 541,-1033.5 541,-1033.5 541,-1039.5 535,-1045.5 529,-1045.5 529,-1045.5 180,-1045.5 180,-1045.5 174,-1045.5 168,-1039.5 168,-1033.5 168,-1033.5 168,-964.5 168,-964.5 168,-958.5 174,-952.5 180,-952.5"/>
<text text-anchor="middle" x="354.5" y="-1030.3" font-family="Times,serif" font-size="14.00">ActionMailbox::Ingresses::Postmark::InboundEmailsController</text>
<polyline fill="none" stroke="black" points="168,-1022.5 541,-1022.5 "/>
<text text-anchor="start" x="176" y="-1007.3" font-family="Times,serif" font-size="14.00">create</text>
<polyline fill="none" stroke="black" points="168,-999.5 541,-999.5 "/>
<polyline fill="none" stroke="black" points="168,-975.5 541,-975.5 "/>
<text text-anchor="start" x="176" y="-960.3" font-family="Times,serif" font-size="14.00">_layout</text>
</g>
<!-- ActionMailbox::Ingresses::Relay::InboundEmailsController -->
<g id="node22" class="node">
<title>ActionMailbox::Ingresses::Relay::InboundEmailsController</title>
<path fill="none" stroke="black" d="M1104,-1120.5C1104,-1120.5 1433,-1120.5 1433,-1120.5 1439,-1120.5 1445,-1126.5 1445,-1132.5 1445,-1132.5 1445,-1216.5 1445,-1216.5 1445,-1222.5 1439,-1228.5 1433,-1228.5 1433,-1228.5 1104,-1228.5 1104,-1228.5 1098,-1228.5 1092,-1222.5 1092,-1216.5 1092,-1216.5 1092,-1132.5 1092,-1132.5 1092,-1126.5 1098,-1120.5 1104,-1120.5"/>
<text text-anchor="middle" x="1268.5" y="-1213.3" font-family="Times,serif" font-size="14.00">ActionMailbox::Ingresses::Relay::InboundEmailsController</text>
<polyline fill="none" stroke="black" points="1092,-1205.5 1445,-1205.5 "/>
<text text-anchor="start" x="1100" y="-1190.3" font-family="Times,serif" font-size="14.00">create</text>
<polyline fill="none" stroke="black" points="1092,-1182.5 1445,-1182.5 "/>
<polyline fill="none" stroke="black" points="1092,-1158.5 1445,-1158.5 "/>
<text text-anchor="start" x="1100" y="-1143.3" font-family="Times,serif" font-size="14.00">_layout</text>
<text text-anchor="start" x="1100" y="-1128.3" font-family="Times,serif" font-size="14.00">require_valid_rfc822_message</text>
</g>
<!-- ActionMailbox::Ingresses::Sendgrid::InboundEmailsController -->
<g id="node23" class="node">
<title>ActionMailbox::Ingresses::Sendgrid::InboundEmailsController</title>
<path fill="none" stroke="black" d="M460,-1092.5C460,-1092.5 807,-1092.5 807,-1092.5 813,-1092.5 819,-1098.5 819,-1104.5 819,-1104.5 819,-1203.5 819,-1203.5 819,-1209.5 813,-1215.5 807,-1215.5 807,-1215.5 460,-1215.5 460,-1215.5 454,-1215.5 448,-1209.5 448,-1203.5 448,-1203.5 448,-1104.5 448,-1104.5 448,-1098.5 454,-1092.5 460,-1092.5"/>
<text text-anchor="middle" x="633.5" y="-1200.3" font-family="Times,serif" font-size="14.00">ActionMailbox::Ingresses::Sendgrid::InboundEmailsController</text>
<polyline fill="none" stroke="black" points="448,-1192.5 819,-1192.5 "/>
<text text-anchor="start" x="456" y="-1177.3" font-family="Times,serif" font-size="14.00">create</text>
<polyline fill="none" stroke="black" points="448,-1169.5 819,-1169.5 "/>
<polyline fill="none" stroke="black" points="448,-1145.5 819,-1145.5 "/>
<text text-anchor="start" x="456" y="-1130.3" font-family="Times,serif" font-size="14.00">_layout</text>
<text text-anchor="start" x="456" y="-1115.3" font-family="Times,serif" font-size="14.00">envelope</text>
<text text-anchor="start" x="456" y="-1100.3" font-family="Times,serif" font-size="14.00">mail</text>
</g>
<!-- Rails::Conductor::ActionMailbox::InboundEmails::SourcesController -->
<g id="node24" class="node">
<title>Rails::Conductor::ActionMailbox::InboundEmails::SourcesController</title>
<path fill="none" stroke="black" d="M992,-700.5C992,-700.5 1376,-700.5 1376,-700.5 1382,-700.5 1388,-706.5 1388,-712.5 1388,-712.5 1388,-796.5 1388,-796.5 1388,-802.5 1382,-808.5 1376,-808.5 1376,-808.5 992,-808.5 992,-808.5 986,-808.5 980,-802.5 980,-796.5 980,-796.5 980,-712.5 980,-712.5 980,-706.5 986,-700.5 992,-700.5"/>
<text text-anchor="middle" x="1184" y="-793.3" font-family="Times,serif" font-size="14.00">Rails::Conductor::ActionMailbox::InboundEmails::SourcesController</text>
<polyline fill="none" stroke="black" points="980,-785.5 1388,-785.5 "/>
<text text-anchor="start" x="988" y="-770.3" font-family="Times,serif" font-size="14.00">create</text>
<text text-anchor="start" x="988" y="-755.3" font-family="Times,serif" font-size="14.00">new</text>
<polyline fill="none" stroke="black" points="980,-747.5 1388,-747.5 "/>
<polyline fill="none" stroke="black" points="980,-723.5 1388,-723.5 "/>
<text text-anchor="start" x="988" y="-708.3" font-family="Times,serif" font-size="14.00">_layout</text>
</g>
<!-- Rails::Conductor::ActionMailbox::InboundEmailsController -->
<g id="node25" class="node">
<title>Rails::Conductor::ActionMailbox::InboundEmailsController</title>
<path fill="none" stroke="black" d="M992,-476.5C992,-476.5 1324,-476.5 1324,-476.5 1330,-476.5 1336,-482.5 1336,-488.5 1336,-488.5 1336,-632.5 1336,-632.5 1336,-638.5 1330,-644.5 1324,-644.5 1324,-644.5 992,-644.5 992,-644.5 986,-644.5 980,-638.5 980,-632.5 980,-632.5 980,-488.5 980,-488.5 980,-482.5 986,-476.5 992,-476.5"/>
<text text-anchor="middle" x="1158" y="-629.3" font-family="Times,serif" font-size="14.00">Rails::Conductor::ActionMailbox::InboundEmailsController</text>
<polyline fill="none" stroke="black" points="980,-621.5 1336,-621.5 "/>
<text text-anchor="start" x="988" y="-606.3" font-family="Times,serif" font-size="14.00">create</text>
<text text-anchor="start" x="988" y="-591.3" font-family="Times,serif" font-size="14.00">index</text>
<text text-anchor="start" x="988" y="-576.3" font-family="Times,serif" font-size="14.00">new</text>
<text text-anchor="start" x="988" y="-561.3" font-family="Times,serif" font-size="14.00">show</text>
<polyline fill="none" stroke="black" points="980,-553.5 1336,-553.5 "/>
<polyline fill="none" stroke="black" points="980,-529.5 1336,-529.5 "/>
<text text-anchor="start" x="988" y="-514.3" font-family="Times,serif" font-size="14.00">_layout</text>
<text text-anchor="start" x="988" y="-499.3" font-family="Times,serif" font-size="14.00">create_inbound_email</text>
<text text-anchor="start" x="988" y="-484.3" font-family="Times,serif" font-size="14.00">new_mail</text>
</g>
<!-- Rails::Conductor::ActionMailbox::ReroutesController -->
<g id="node26" class="node">
<title>Rails::Conductor::ActionMailbox::ReroutesController</title>
<path fill="none" stroke="black" d="M124,-140.5C124,-140.5 421,-140.5 421,-140.5 427,-140.5 433,-146.5 433,-152.5 433,-152.5 433,-236.5 433,-236.5 433,-242.5 427,-248.5 421,-248.5 421,-248.5 124,-248.5 124,-248.5 118,-248.5 112,-242.5 112,-236.5 112,-236.5 112,-152.5 112,-152.5 112,-146.5 118,-140.5 124,-140.5"/>
<text text-anchor="middle" x="272.5" y="-233.3" font-family="Times,serif" font-size="14.00">Rails::Conductor::ActionMailbox::ReroutesController</text>
<polyline fill="none" stroke="black" points="112,-225.5 433,-225.5 "/>
<text text-anchor="start" x="120" y="-210.3" font-family="Times,serif" font-size="14.00">create</text>
<polyline fill="none" stroke="black" points="112,-202.5 433,-202.5 "/>
<polyline fill="none" stroke="black" points="112,-178.5 433,-178.5 "/>
<text text-anchor="start" x="120" y="-163.3" font-family="Times,serif" font-size="14.00">_layout</text>
<text text-anchor="start" x="120" y="-148.3" font-family="Times,serif" font-size="14.00">reroute</text>
</g>
<!-- Rails::Conductor::BaseController -->
<g id="node27" class="node">
<title>Rails::Conductor::BaseController</title>
<path fill="none" stroke="black" d="M544,-1260.5C544,-1260.5 725,-1260.5 725,-1260.5 731,-1260.5 737,-1266.5 737,-1272.5 737,-1272.5 737,-1357.5 737,-1357.5 737,-1363.5 731,-1369.5 725,-1369.5 725,-1369.5 544,-1369.5 544,-1369.5 538,-1369.5 532,-1363.5 532,-1357.5 532,-1357.5 532,-1272.5 532,-1272.5 532,-1266.5 538,-1260.5 544,-1260.5"/>
<text text-anchor="middle" x="634.5" y="-1354.3" font-family="Times,serif" font-size="14.00">Rails::Conductor::BaseController</text>
<polyline fill="none" stroke="black" points="532,-1346.5 737,-1346.5 "/>
<polyline fill="none" stroke="black" points="532,-1322.5 737,-1322.5 "/>
<polyline fill="none" stroke="black" points="532,-1298.5 737,-1298.5 "/>
<text text-anchor="start" x="540" y="-1283.3" font-family="Times,serif" font-size="14.00">_layout</text>
<text text-anchor="start" x="540" y="-1268.3" font-family="Times,serif" font-size="14.00">ensure_development_env</text>
</g>
</g>
</svg>
