<?xml version="1.0" encoding="UTF-8" standalone="no"?>
<!DOCTYPE svg PUBLIC "-//W3C//DTD SVG 1.1//EN"
 "http://www.w3.org/Graphics/SVG/1.1/DTD/svg11.dtd">
<!-- Generated by graphviz version 2.49.3 (20211023.0002)
 -->
<!-- Title: models_diagram Pages: 1 -->
<svg width="3765pt" height="507pt"
 viewBox="0.00 0.00 3765.00 507.00" xmlns="http://www.w3.org/2000/svg" xmlns:xlink="http://www.w3.org/1999/xlink">
<g id="graph0" class="graph" transform="scale(1 1) rotate(0) translate(4 503)">
<title>models_diagram</title>
<polygon fill="transparent" stroke="transparent" points="-4,4 -4,-503 3761,-503 3761,4 -4,4"/>
<!-- _diagram_info -->
<g id="node1" class="node">
<title>_diagram_info</title>
<text text-anchor="start" x="8" y="-484.6" font-family="Times,serif" font-size="13.00">Models diagram</text>
<text text-anchor="start" x="8" y="-470.6" font-family="Times,serif" font-size="13.00">Date: Dec 14 2021 &#45; 18:46</text>
<text text-anchor="start" x="8" y="-456.6" font-family="Times,serif" font-size="13.00">Migration version: 20211117235206</text>
<text text-anchor="start" x="8" y="-442.6" font-family="Times,serif" font-size="13.00">Generated by RailRoady 1.6.0</text>
<text text-anchor="start" x="8" y="-428.6" font-family="Times,serif" font-size="13.00">http://railroady.prestonlee.com</text>
</g>
<!-- Answer -->
<g id="node2" class="node">
<title>Answer</title>
<ellipse fill="none" stroke="black" cx="161" cy="-366" rx="38.99" ry="18"/>
<text text-anchor="middle" x="161" y="-362.3" font-family="Times,serif" font-size="14.00">Answer</text>
</g>
<!-- Question -->
<g id="node5" class="node">
<title>Question</title>
<ellipse fill="none" stroke="black" cx="264" cy="-279" rx="43.59" ry="18"/>
<text text-anchor="middle" x="264" y="-275.3" font-family="Times,serif" font-size="14.00">Question</text>
</g>
<!-- Answer&#45;&gt;Question -->
<g id="edge1" class="edge">
<title>Answer&#45;&gt;Question</title>
<path fill="none" stroke="#b2840e" d="M187.32,-343.28C202.64,-330.63 221.91,-314.73 237.3,-302.04"/>
<polygon fill="#b2840e" stroke="#b2840e" points="187.13,-343.44 176.55,-346.33 183.27,-346.62 179.41,-349.8 179.41,-349.8 179.41,-349.8 183.27,-346.62 182.28,-353.27 187.13,-343.44 187.13,-343.44"/>
<polygon fill="#b2840e" stroke="#b2840e" points="237.68,-301.72 248.26,-298.82 241.54,-298.53 245.4,-295.35 245.4,-295.35 245.4,-295.35 241.54,-298.53 242.53,-291.88 237.68,-301.72 237.68,-301.72"/>
</g>
<!-- Statistic -->
<g id="node6" class="node">
<title>Statistic</title>
<ellipse fill="none" stroke="black" cx="283" cy="-192" rx="40.09" ry="18"/>
<text text-anchor="middle" x="283" y="-188.3" font-family="Times,serif" font-size="14.00">Statistic</text>
</g>
<!-- Answer&#45;&gt;Statistic -->
<g id="edge2" class="edge">
<title>Answer&#45;&gt;Statistic</title>
<path fill="none" stroke="#c19197" d="M170.49,-338.76C179.15,-316.81 193.27,-285.27 211,-261 223.75,-243.55 241.34,-226.84 255.95,-214.35"/>
<polygon fill="#c19197" stroke="#c19197" points="170.49,-338.78 162.71,-346.51 168.7,-343.45 166.91,-348.12 166.91,-348.12 166.91,-348.12 168.7,-343.45 171.11,-349.73 170.49,-338.78 170.49,-338.78"/>
<polygon fill="#c19197" stroke="#c19197" points="256.03,-214.28 266.59,-211.32 259.86,-211.07 263.7,-207.87 263.7,-207.87 263.7,-207.87 259.86,-211.07 260.82,-204.41 256.03,-214.28 256.03,-214.28"/>
</g>
<!-- ApplicationRecord -->
<g id="node3" class="node">
<title>ApplicationRecord</title>
<ellipse fill="none" stroke="black" cx="304" cy="-460" rx="79.89" ry="18"/>
<text text-anchor="middle" x="304" y="-456.3" font-family="Times,serif" font-size="14.00">ApplicationRecord</text>
</g>
<!-- ApplicationRecord&#45;&gt;Answer -->
<g id="edge3" class="edge">
<title>ApplicationRecord&#45;&gt;Answer</title>
<path fill="none" stroke="black" d="M278.76,-442.76C251.5,-425.23 208.52,-397.57 182.71,-380.97"/>
</g>
<!-- Field -->
<g id="node4" class="node">
<title>Field</title>
<ellipse fill="none" stroke="black" cx="247" cy="-366" rx="29.5" ry="18"/>
<text text-anchor="middle" x="247" y="-362.3" font-family="Times,serif" font-size="14.00">Field</text>
</g>
<!-- ApplicationRecord&#45;&gt;Field -->
<g id="edge5" class="edge">
<title>ApplicationRecord&#45;&gt;Field</title>
<path fill="none" stroke="black" d="M293.55,-442.13C283.13,-425.32 267.26,-399.7 257.01,-383.15"/>
</g>
<!-- ApplicationRecord&#45;&gt;Question -->
<g id="edge7" class="edge">
<title>ApplicationRecord&#45;&gt;Question</title>
<path fill="none" stroke="black" d="M301.78,-441.94C298.77,-420.02 292.86,-380.9 285,-348 280.78,-330.33 274.48,-310.54 269.88,-296.88"/>
</g>
<!-- ApplicationRecord&#45;&gt;Statistic -->
<g id="edge9" class="edge">
<title>ApplicationRecord&#45;&gt;Statistic</title>
<path fill="none" stroke="black" d="M308.49,-441.77C316.81,-407.04 332.43,-326.38 317,-261 312.57,-242.24 302.14,-222.76 293.99,-209.49"/>
</g>
<!-- User -->
<g id="node7" class="node">
<title>User</title>
<ellipse fill="none" stroke="black" cx="357" cy="-105" rx="27.9" ry="18"/>
<text text-anchor="middle" x="357" y="-101.3" font-family="Times,serif" font-size="14.00">User</text>
</g>
<!-- ApplicationRecord&#45;&gt;User -->
<g id="edge10" class="edge">
<title>ApplicationRecord&#45;&gt;User</title>
<path fill="none" stroke="black" d="M329.73,-442.65C351.78,-426.41 380,-399.32 380,-367 380,-367 380,-367 380,-191 380,-166.54 371.02,-139.45 364.28,-122.58"/>
</g>
<!-- Field&#45;&gt;Question -->
<g id="edge4" class="edge">
<title>Field&#45;&gt;Question</title>
<path fill="none" stroke="#762c39" d="M252.45,-337.73C254.41,-327.96 256.61,-316.94 258.57,-307.17"/>
<polygon fill="#762c39" stroke="#762c39" points="252.4,-337.99 246.03,-346.92 251.42,-342.9 250.44,-347.8 250.44,-347.8 250.44,-347.8 251.42,-342.9 254.85,-348.68 252.4,-337.99 252.4,-337.99"/>
<polygon fill="#762c39" stroke="#762c39" points="258.6,-306.98 264.98,-298.06 259.58,-302.08 260.56,-297.18 260.56,-297.18 260.56,-297.18 259.58,-302.08 256.15,-296.29 258.6,-306.98 258.6,-306.98"/>
</g>
<!-- Question&#45;&gt;Statistic -->
<g id="edge6" class="edge">
<title>Question&#45;&gt;Statistic</title>
<path fill="none" stroke="#328a27" d="M270.09,-250.73C272.28,-240.96 274.74,-229.94 276.93,-220.17"/>
<polygon fill="#328a27" stroke="#328a27" points="270.03,-251.04 263.45,-259.82 268.94,-255.92 267.84,-260.8 267.84,-260.8 267.84,-260.8 268.94,-255.92 272.24,-261.78 270.03,-251.04 270.03,-251.04"/>
<polygon fill="#328a27" stroke="#328a27" points="276.98,-219.93 283.55,-211.16 278.07,-215.06 279.16,-210.18 279.16,-210.18 279.16,-210.18 278.07,-215.06 274.77,-209.19 276.98,-219.93 276.98,-219.93"/>
</g>
<!-- Statistic&#45;&gt;User -->
<g id="edge8" class="edge">
<title>Statistic&#45;&gt;User</title>
<path fill="none" stroke="#050f16" d="M303.68,-167.24C314.15,-155.22 326.8,-140.69 337.15,-128.8"/>
<polygon fill="#050f16" stroke="#050f16" points="303.49,-167.47 293.52,-172.06 300.2,-171.24 296.92,-175.01 296.92,-175.01 296.92,-175.01 300.2,-171.24 300.31,-177.97 303.49,-167.47 303.49,-167.47"/>
<polygon fill="#050f16" stroke="#050f16" points="337.32,-128.6 347.28,-124.01 340.61,-124.83 343.89,-121.06 343.89,-121.06 343.89,-121.06 340.61,-124.83 340.49,-118.11 337.32,-128.6 337.32,-128.6"/>
</g>
<!-- ActiveStorage::Attachment -->
<g id="node8" class="node">
<title>ActiveStorage::Attachment</title>
<ellipse fill="none" stroke="black" cx="803" cy="-279" rx="110.48" ry="18"/>
<text text-anchor="middle" x="803" y="-275.3" font-family="Times,serif" font-size="14.00">ActiveStorage::Attachment</text>
</g>
<!-- ActiveStorage::Blob -->
<g id="node12" class="node">
<title>ActiveStorage::Blob</title>
<ellipse fill="none" stroke="black" cx="781" cy="-105" rx="85.59" ry="18"/>
<text text-anchor="middle" x="781" y="-101.3" font-family="Times,serif" font-size="14.00">ActiveStorage::Blob</text>
</g>
<!-- ActiveStorage::Attachment&#45;&gt;ActiveStorage::Blob -->
<g id="edge12" class="edge">
<title>ActiveStorage::Attachment&#45;&gt;ActiveStorage::Blob</title>
<path fill="none" stroke="#2b2fd7" d="M799.5,-250.64C795.38,-218.41 788.57,-165.18 784.46,-133.07"/>
<polygon fill="#2b2fd7" stroke="#2b2fd7" points="799.54,-250.96 796.35,-261.45 800.18,-255.92 800.81,-260.88 800.81,-260.88 800.81,-260.88 800.18,-255.92 805.27,-260.31 799.54,-250.96 799.54,-250.96"/>
<polygon fill="#2b2fd7" stroke="#2b2fd7" points="784.45,-132.97 787.64,-122.48 783.82,-128.01 783.18,-123.05 783.18,-123.05 783.18,-123.05 783.82,-128.01 778.72,-123.62 784.45,-132.97 784.45,-132.97"/>
<text text-anchor="middle" x="807.5" y="-188.3" font-family="Times,serif" font-size="14.00">blob</text>
</g>
<!-- ActiveStorage::Record -->
<g id="node16" class="node">
<title>ActiveStorage::Record</title>
<ellipse fill="none" stroke="black" cx="959" cy="-192" rx="94.48" ry="18"/>
<text text-anchor="middle" x="959" y="-188.3" font-family="Times,serif" font-size="14.00">ActiveStorage::Record</text>
</g>
<!-- ActiveStorage::Attachment&#45;&gt;ActiveStorage::Record -->
<g id="edge11" class="edge">
<title>ActiveStorage::Attachment&#45;&gt;ActiveStorage::Record</title>
<path fill="none" stroke="#628af0" d="M836.73,-256.37C859.88,-243.17 890.69,-226.4 915.65,-213.42"/>
<polygon fill="#628af0" stroke="#628af0" points="836.64,-256.42 825.72,-257.51 832.3,-258.92 827.97,-261.41 827.97,-261.41 827.97,-261.41 832.3,-258.92 830.21,-265.31 836.64,-256.42 836.64,-256.42"/>
<polygon fill="#628af0" stroke="#628af0" points="915.67,-213.42 926.62,-212.83 920.11,-211.12 924.55,-208.83 924.55,-208.83 924.55,-208.83 920.11,-211.12 922.49,-204.83 915.67,-213.42 915.67,-213.42"/>
</g>
<!-- ActiveStorage::Blob::Analyzable -->
<g id="node9" class="node">
<title>ActiveStorage::Blob::Analyzable</title>
<polygon fill="none" stroke="black" stroke-dasharray="1,5" points="907.5,-478 704.5,-478 704.5,-442 907.5,-442 907.5,-478"/>
<text text-anchor="middle" x="806" y="-456.3" font-family="Times,serif" font-size="14.00">ActiveStorage::Blob::Analyzable</text>
</g>
<!-- ActiveStorage::Blob::Identifiable -->
<g id="node10" class="node">
<title>ActiveStorage::Blob::Identifiable</title>
<polygon fill="none" stroke="black" stroke-dasharray="1,5" points="1128.5,-478 925.5,-478 925.5,-442 1128.5,-442 1128.5,-478"/>
<text text-anchor="middle" x="1027" y="-456.3" font-family="Times,serif" font-size="14.00">ActiveStorage::Blob::Identifiable</text>
</g>
<!-- ActiveStorage::Blob::Representable -->
<g id="node11" class="node">
<title>ActiveStorage::Blob::Representable</title>
<polygon fill="none" stroke="black" stroke-dasharray="1,5" points="1365.5,-478 1146.5,-478 1146.5,-442 1365.5,-442 1365.5,-478"/>
<text text-anchor="middle" x="1256" y="-456.3" font-family="Times,serif" font-size="14.00">ActiveStorage::Blob::Representable</text>
</g>
<!-- ActiveStorage::Blob&#45;&gt;ActiveStorage::Attachment -->
<g id="edge15" class="edge">
<title>ActiveStorage::Blob&#45;&gt;ActiveStorage::Attachment</title>
<path fill="none" stroke="#a63f64" d="M718.24,-122.25C665.58,-139.16 603.07,-168.93 631,-210 649.74,-237.55 681.54,-253.94 712.74,-263.69"/>
<polygon fill="#a63f64" stroke="#a63f64" points="718.39,-122.21 729.27,-123.55 723.16,-120.73 727.94,-119.25 727.94,-119.25 727.94,-119.25 723.16,-120.73 726.61,-114.95 718.39,-122.21 718.39,-122.21"/>
<polygon fill="#a63f64" stroke="#a63f64" points="712.79,-263.7 721.13,-270.83 717.59,-265.11 722.39,-266.51 722.39,-266.51 722.39,-266.51 717.59,-265.11 723.65,-262.19 712.79,-263.7 712.79,-263.7"/>
<text text-anchor="middle" x="708.5" y="-188.3" font-family="Times,serif" font-size="14.00">preview_image_attachment</text>
</g>
<!-- ActiveStorage::Blob&#45;&gt;ActiveStorage::Attachment -->
<g id="edge17" class="edge">
<title>ActiveStorage::Blob&#45;&gt;ActiveStorage::Attachment</title>
<path fill="none" stroke="#52b79d" d="M801.21,-131.17C809.71,-143.35 818.64,-158.64 823,-174 830.37,-199.96 822.72,-230.33 814.84,-251.53"/>
<polygon fill="#52b79d" stroke="#52b79d" points="801.06,-130.97 798.79,-120.24 798.11,-126.93 795.16,-122.89 795.16,-122.89 795.16,-122.89 798.11,-126.93 791.52,-125.55 801.06,-130.97 801.06,-130.97"/>
<polygon fill="#52b79d" stroke="#52b79d" points="814.83,-251.56 806.96,-259.2 812.99,-256.21 811.15,-260.86 811.15,-260.86 811.15,-260.86 812.99,-256.21 815.33,-262.51 814.83,-251.56 814.83,-251.56"/>
</g>
<!-- ActiveStorage::Blob&#45;&gt;ActiveStorage::Blob -->
<g id="edge16" class="edge">
<title>ActiveStorage::Blob&#45;&gt;ActiveStorage::Blob</title>
<path fill="none" stroke="#0deeb5" d="M869.29,-111.56C878.73,-110.3 884.79,-108.11 884.79,-105 884.79,-101.89 878.73,-99.7 869.29,-98.44"/>
<polygon fill="#0deeb5" stroke="#0deeb5" points="869.26,-111.57 858.89,-108.02 864.28,-112.03 859.3,-112.5 859.3,-112.5 859.3,-112.5 864.28,-112.03 859.72,-116.98 869.26,-111.57 869.26,-111.57"/>
<polygon fill="#0deeb5" stroke="#0deeb5" points="869.26,-98.43 859.72,-93.02 864.28,-97.97 859.3,-97.5 859.3,-97.5 859.3,-97.5 864.28,-97.97 858.89,-101.98 869.26,-98.43 869.26,-98.43"/>
<text text-anchor="middle" x="944.29" y="-101.3" font-family="Times,serif" font-size="14.00">preview_image_blob</text>
</g>
<!-- ActiveStorage::VariantRecord -->
<g id="node18" class="node">
<title>ActiveStorage::VariantRecord</title>
<ellipse fill="none" stroke="black" cx="904" cy="-18" rx="120.48" ry="18"/>
<text text-anchor="middle" x="904" y="-14.3" font-family="Times,serif" font-size="14.00">ActiveStorage::VariantRecord</text>
</g>
<!-- ActiveStorage::Blob&#45;&gt;ActiveStorage::VariantRecord -->
<g id="edge14" class="edge">
<title>ActiveStorage::Blob&#45;&gt;ActiveStorage::VariantRecord</title>
<path fill="none" stroke="#0bf443" d="M850.84,-88.33C862.18,-83.5 873.1,-77.21 882,-69 888.71,-62.81 893.49,-54.2 896.84,-45.87"/>
<polygon fill="#0bf443" stroke="#0bf443" points="850.58,-88.43 839.63,-87.86 845.92,-90.24 841.26,-92.05 841.26,-92.05 841.26,-92.05 845.92,-90.24 842.89,-96.25 850.58,-88.43 850.58,-88.43"/>
<polygon fill="#0bf443" stroke="#0bf443" points="896.85,-45.82 904.39,-37.85 898.5,-41.1 900.14,-36.37 900.14,-36.37 900.14,-36.37 898.5,-41.1 895.89,-34.9 896.85,-45.82 896.85,-45.82"/>
<text text-anchor="middle" x="937" y="-57.8" font-family="Times,serif" font-size="14.00">variant_records</text>
</g>
<!-- ActiveStorage::Current -->
<g id="node13" class="node">
<title>ActiveStorage::Current</title>
<polygon fill="none" stroke="black" points="1590.5,-384 1443.5,-384 1443.5,-348 1590.5,-348 1590.5,-384"/>
<text text-anchor="middle" x="1517" y="-362.3" font-family="Times,serif" font-size="14.00">ActiveStorage::Current</text>
</g>
<!-- ActiveStorage::Filename -->
<g id="node14" class="node">
<title>ActiveStorage::Filename</title>
<polygon fill="none" stroke="black" points="1824,-478 1668,-478 1668,-442 1824,-442 1824,-478"/>
<text text-anchor="middle" x="1746" y="-456.3" font-family="Times,serif" font-size="14.00">ActiveStorage::Filename</text>
</g>
<!-- ActiveStorage::Preview -->
<g id="node15" class="node">
<title>ActiveStorage::Preview</title>
<polygon fill="none" stroke="black" points="1992,-478 1842,-478 1842,-442 1992,-442 1992,-478"/>
<text text-anchor="middle" x="1917" y="-456.3" font-family="Times,serif" font-size="14.00">ActiveStorage::Preview</text>
</g>
<!-- ActiveStorage::Record&#45;&gt;ActiveStorage::Attachment -->
<g id="edge13" class="edge">
<title>ActiveStorage::Record&#45;&gt;ActiveStorage::Attachment</title>
<path fill="none" stroke="black" d="M934.33,-209.42C908.34,-224.52 867.47,-246.78 838.14,-261.81"/>
</g>
<!-- ActiveStorage::Record&#45;&gt;ActiveStorage::Blob -->
<g id="edge18" class="edge">
<title>ActiveStorage::Record&#45;&gt;ActiveStorage::Blob</title>
<path fill="none" stroke="black" d="M925.52,-175.01C893.6,-159.77 845.8,-136.95 814.03,-121.77"/>
</g>
<!-- ActiveStorage::Record&#45;&gt;ActiveStorage::VariantRecord -->
<g id="edge23" class="edge">
<title>ActiveStorage::Record&#45;&gt;ActiveStorage::VariantRecord</title>
<path fill="none" stroke="black" d="M977.66,-174.31C990.33,-161.66 1006,-143.07 1013,-123 1018.27,-107.89 1018.51,-102.02 1013,-87 1003.62,-61.46 978.43,-44.81 954.62,-34.39"/>
</g>
<!-- ActiveStorage::Variant -->
<g id="node17" class="node">
<title>ActiveStorage::Variant</title>
<polygon fill="none" stroke="black" points="2155.5,-478 2010.5,-478 2010.5,-442 2155.5,-442 2155.5,-478"/>
<text text-anchor="middle" x="2083" y="-456.3" font-family="Times,serif" font-size="14.00">ActiveStorage::Variant</text>
</g>
<!-- ActiveStorage::VariantRecord&#45;&gt;ActiveStorage::Attachment -->
<g id="edge21" class="edge">
<title>ActiveStorage::VariantRecord&#45;&gt;ActiveStorage::Attachment</title>
<path fill="none" stroke="#2de90c" d="M980.15,-36.77C990.82,-41.3 1001.15,-46.95 1010,-54 1067.17,-99.52 1106.64,-152.13 1062,-210 1050.66,-224.7 952.63,-247.53 880.51,-262.62"/>
<polygon fill="#2de90c" stroke="#2de90c" points="980.02,-36.72 972.35,-28.88 975.36,-34.89 970.71,-33.07 970.71,-33.07 970.71,-33.07 975.36,-34.89 969.07,-37.26 980.02,-36.72 980.02,-36.72"/>
<polygon fill="#2de90c" stroke="#2de90c" points="880.31,-262.66 869.61,-260.29 875.42,-263.68 870.52,-264.7 870.52,-264.7 870.52,-264.7 875.42,-263.68 871.44,-269.1 880.31,-262.66 880.31,-262.66"/>
<text text-anchor="middle" x="1133.5" y="-144.8" font-family="Times,serif" font-size="14.00">image_attachment</text>
</g>
<!-- ActiveStorage::VariantRecord&#45;&gt;ActiveStorage::Blob -->
<g id="edge20" class="edge">
<title>ActiveStorage::VariantRecord&#45;&gt;ActiveStorage::Blob</title>
<path fill="none" stroke="#3340a8" d="M819.78,-36.34C810.59,-40.92 802.03,-46.7 795,-54 789.11,-60.12 785.66,-68.51 783.65,-76.66"/>
<polygon fill="#3340a8" stroke="#3340a8" points="820.02,-36.23 830.99,-36.26 824.59,-34.19 829.15,-32.15 829.15,-32.15 829.15,-32.15 824.59,-34.19 827.32,-28.04 820.02,-36.23 820.02,-36.23"/>
<polygon fill="#3340a8" stroke="#3340a8" points="783.61,-76.85 777.37,-85.87 782.71,-81.77 781.8,-86.68 781.8,-86.68 781.8,-86.68 782.71,-81.77 786.22,-87.5 783.61,-76.85 783.61,-76.85"/>
</g>
<!-- ActiveStorage::VariantRecord&#45;&gt;ActiveStorage::Blob -->
<g id="edge22" class="edge">
<title>ActiveStorage::VariantRecord&#45;&gt;ActiveStorage::Blob</title>
<path fill="none" stroke="#38fbec" d="M836.83,-37.98C827.58,-42.34 818.65,-47.62 811,-54 803.35,-60.38 797.15,-69.24 792.41,-77.74"/>
<polygon fill="#38fbec" stroke="#38fbec" points="836.97,-37.92 847.94,-38.05 841.56,-35.92 846.14,-33.93 846.14,-33.93 846.14,-33.93 841.56,-35.92 844.35,-29.8 836.97,-37.92 836.97,-37.92"/>
<polygon fill="#38fbec" stroke="#38fbec" points="792.4,-77.77 783.84,-84.63 790.12,-82.22 787.85,-86.68 787.85,-86.68 787.85,-86.68 790.12,-82.22 791.86,-88.72 792.4,-77.77 792.4,-77.77"/>
<text text-anchor="middle" x="844.5" y="-57.8" font-family="Times,serif" font-size="14.00">image_blob</text>
</g>
<!-- ActiveStorage::VariantWithRecord -->
<g id="node19" class="node">
<title>ActiveStorage::VariantWithRecord</title>
<polygon fill="none" stroke="black" points="2386.5,-478 2173.5,-478 2173.5,-442 2386.5,-442 2386.5,-478"/>
<text text-anchor="middle" x="2280" y="-456.3" font-family="Times,serif" font-size="14.00">ActiveStorage::VariantWithRecord</text>
</g>
<!-- ActiveStorage::Variation -->
<g id="node20" class="node">
<title>ActiveStorage::Variation</title>
<polygon fill="none" stroke="black" points="2561,-478 2405,-478 2405,-442 2561,-442 2561,-478"/>
<text text-anchor="middle" x="2483" y="-456.3" font-family="Times,serif" font-size="14.00">ActiveStorage::Variation</text>
</g>
<!-- ActionMailbox::InboundEmail::Incineratable::Incineration -->
<g id="node21" class="node">
<title>ActionMailbox::InboundEmail::Incineratable::Incineration</title>
<polygon fill="none" stroke="black" points="2925,-478 2579,-478 2579,-442 2925,-442 2925,-478"/>
<text text-anchor="middle" x="2752" y="-456.3" font-family="Times,serif" font-size="14.00">ActionMailbox::InboundEmail::Incineratable::Incineration</text>
</g>
<!-- ActionMailbox::InboundEmail::Incineratable -->
<g id="node22" class="node">
<title>ActionMailbox::InboundEmail::Incineratable</title>
<polygon fill="none" stroke="black" stroke-dasharray="1,5" points="3214.5,-478 2943.5,-478 2943.5,-442 3214.5,-442 3214.5,-478"/>
<text text-anchor="middle" x="3079" y="-456.3" font-family="Times,serif" font-size="14.00">ActionMailbox::InboundEmail::Incineratable</text>
</g>
<!-- ActionMailbox::InboundEmail::MessageId -->
<g id="node23" class="node">
<title>ActionMailbox::InboundEmail::MessageId</title>
<polygon fill="none" stroke="black" stroke-dasharray="1,5" points="3491,-478 3233,-478 3233,-442 3491,-442 3491,-478"/>
<text text-anchor="middle" x="3362" y="-456.3" font-family="Times,serif" font-size="14.00">ActionMailbox::InboundEmail::MessageId</text>
</g>
<!-- ActionMailbox::InboundEmail::Routable -->
<g id="node24" class="node">
<title>ActionMailbox::InboundEmail::Routable</title>
<polygon fill="none" stroke="black" stroke-dasharray="1,5" points="3757,-478 3509,-478 3509,-442 3757,-442 3757,-478"/>
<text text-anchor="middle" x="3633" y="-456.3" font-family="Times,serif" font-size="14.00">ActionMailbox::InboundEmail::Routable</text>
</g>
<!-- ActionMailbox::InboundEmail -->
<g id="node25" class="node">
<title>ActionMailbox::InboundEmail</title>
<ellipse fill="none" stroke="black" cx="589" cy="-366" rx="123.48" ry="18"/>
<text text-anchor="middle" x="589" y="-362.3" font-family="Times,serif" font-size="14.00">ActionMailbox::InboundEmail</text>
</g>
<!-- ActionMailbox::InboundEmail&#45;&gt;ActiveStorage::Attachment -->
<g id="edge24" class="edge">
<title>ActionMailbox::InboundEmail&#45;&gt;ActiveStorage::Attachment</title>
<path fill="none" stroke="#f37e64" d="M638.8,-345.22C673.35,-331.49 719.17,-313.3 753.63,-299.61"/>
<polygon fill="#f37e64" stroke="#f37e64" points="638.8,-345.22 627.84,-344.73 634.15,-347.07 629.5,-348.91 629.5,-348.91 629.5,-348.91 634.15,-347.07 631.16,-353.09 638.8,-345.22 638.8,-345.22"/>
<polygon fill="#f37e64" stroke="#f37e64" points="753.73,-299.57 764.69,-300.06 758.38,-297.72 763.02,-295.88 763.02,-295.88 763.02,-295.88 758.38,-297.72 761.36,-291.7 753.73,-299.57 753.73,-299.57"/>
<text text-anchor="middle" x="773" y="-318.8" font-family="Times,serif" font-size="14.00">raw_email_attachment</text>
</g>
<!-- ActionMailbox::InboundEmail&#45;&gt;ActiveStorage::Blob -->
<g id="edge25" class="edge">
<title>ActionMailbox::InboundEmail&#45;&gt;ActiveStorage::Blob</title>
<path fill="none" stroke="#aa9aaa" d="M572.37,-339.22C556.48,-311.11 537.11,-265.18 553,-228 574.99,-176.55 595.07,-168.15 644,-141 662.17,-130.92 683.3,-123.68 703.45,-118.5"/>
<polygon fill="#aa9aaa" stroke="#aa9aaa" points="572.49,-339.42 573.7,-350.32 575.03,-343.72 577.57,-348.03 577.57,-348.03 577.57,-348.03 575.03,-343.72 581.45,-345.74 572.49,-339.42 572.49,-339.42"/>
<polygon fill="#aa9aaa" stroke="#aa9aaa" points="703.53,-118.48 714.31,-120.49 708.39,-117.3 713.25,-116.12 713.25,-116.12 713.25,-116.12 708.39,-117.3 712.19,-111.75 703.53,-118.48 703.53,-118.48"/>
<text text-anchor="middle" x="598.5" y="-231.8" font-family="Times,serif" font-size="14.00">raw_email_blob</text>
</g>
<!-- ActionMailbox::Record -->
<g id="node26" class="node">
<title>ActionMailbox::Record</title>
<ellipse fill="none" stroke="black" cx="589" cy="-460" rx="97.48" ry="18"/>
<text text-anchor="middle" x="589" y="-456.3" font-family="Times,serif" font-size="14.00">ActionMailbox::Record</text>
</g>
<!-- ActionMailbox::Record&#45;&gt;ActionMailbox::InboundEmail -->
<g id="edge26" class="edge">
<title>ActionMailbox::Record&#45;&gt;ActionMailbox::InboundEmail</title>
<path fill="none" stroke="black" d="M589,-441.7C589,-425.25 589,-400.65 589,-384.23"/>
</g>
<!-- ActionText::Record -->
<g id="node27" class="node">
<title>ActionText::Record</title>
<ellipse fill="none" stroke="black" cx="1014" cy="-279" rx="82.59" ry="18"/>
<text text-anchor="middle" x="1014" y="-275.3" font-family="Times,serif" font-size="14.00">ActionText::Record</text>
</g>
<!-- ActionText::RichText -->
<g id="node28" class="node">
<title>ActionText::RichText</title>
<ellipse fill="none" stroke="black" cx="1014" cy="-366" rx="89.88" ry="18"/>
<text text-anchor="middle" x="1014" y="-362.3" font-family="Times,serif" font-size="14.00">ActionText::RichText</text>
</g>
<!-- ActionText::Record&#45;&gt;ActionText::RichText -->
<g id="edge30" class="edge">
<title>ActionText::Record&#45;&gt;ActionText::RichText</title>
<path fill="none" stroke="black" d="M1019.55,-297.18C1021.15,-311.92 1021.15,-333.05 1019.55,-347.8"/>
</g>
<!-- ActionText::RichText&#45;&gt;ActiveStorage::Attachment -->
<g id="edge28" class="edge">
<title>ActionText::RichText&#45;&gt;ActiveStorage::Attachment</title>
<path fill="none" stroke="#a140d6" d="M948.85,-349.07C930.5,-343.8 910.71,-337.37 893,-330 874.06,-322.12 854.02,-311.26 837.67,-301.67"/>
<polygon fill="#a140d6" stroke="#a140d6" points="948.96,-349.1 957.37,-356.13 953.77,-350.45 958.59,-351.79 958.59,-351.79 958.59,-351.79 953.77,-350.45 959.8,-347.46 948.96,-349.1 948.96,-349.1"/>
<polygon fill="#a140d6" stroke="#a140d6" points="837.58,-301.62 831.3,-292.64 833.29,-299.06 828.99,-296.5 828.99,-296.5 828.99,-296.5 833.29,-299.06 826.69,-300.37 837.58,-301.62 837.58,-301.62"/>
<text text-anchor="middle" x="951.5" y="-318.8" font-family="Times,serif" font-size="14.00">embeds_attachments</text>
</g>
<!-- ActionText::RichText&#45;&gt;ActiveStorage::Blob -->
<g id="edge29" class="edge">
<title>ActionText::RichText&#45;&gt;ActiveStorage::Blob</title>
<path fill="none" stroke="#aafc32" d="M1057.96,-344.19C1076.34,-332.99 1095.78,-317.27 1106,-297 1132.15,-245.16 1107.51,-210.05 1062,-174 1009.28,-132.23 934.76,-115.56 875.71,-109.15"/>
<polygon fill="#aafc32" stroke="#aafc32" points="1057.73,-344.33 1046.82,-345.43 1053.4,-346.83 1049.07,-349.33 1049.07,-349.33 1049.07,-349.33 1053.4,-346.83 1051.32,-353.22 1057.73,-344.33 1057.73,-344.33"/>
<polygon fill="#aafc32" stroke="#aafc32" points="875.58,-109.14 866.07,-103.67 870.6,-108.64 865.63,-108.14 865.63,-108.14 865.63,-108.14 870.6,-108.64 865.18,-112.62 875.58,-109.14 875.58,-109.14"/>
<text text-anchor="middle" x="1156.5" y="-231.8" font-family="Times,serif" font-size="14.00">embeds_blobs</text>
</g>
<!-- ActionText::RichText&#45;&gt;ActionText::Record -->
<g id="edge27" class="edge">
<title>ActionText::RichText&#45;&gt;ActionText::Record</title>
<path fill="none" stroke="#d0a255" d="M1007.65,-337.73C1007.11,-327.96 1007.12,-316.94 1007.66,-307.17"/>
<polygon fill="#d0a255" stroke="#d0a255" points="1007.66,-337.83 1003.97,-348.16 1008.06,-342.81 1008.45,-347.8 1008.45,-347.8 1008.45,-347.8 1008.06,-342.81 1012.94,-347.44 1007.66,-337.83 1007.66,-337.83"/>
<polygon fill="#d0a255" stroke="#d0a255" points="1007.66,-307.14 1012.94,-297.53 1008.06,-302.16 1008.45,-297.18 1008.45,-297.18 1008.45,-297.18 1008.06,-302.16 1003.97,-296.82 1007.66,-307.14 1007.66,-307.14"/>
</g>
<!-- ActiveSupport::CurrentAttributes -->
<g id="node29" class="node">
<title>ActiveSupport::CurrentAttributes</title>
<ellipse fill="none" stroke="black" cx="1517" cy="-460" rx="133.48" ry="18"/>
<text text-anchor="middle" x="1517" y="-456.3" font-family="Times,serif" font-size="14.00">ActiveSupport::CurrentAttributes</text>
</g>
<!-- ActiveSupport::CurrentAttributes&#45;&gt;ActiveStorage::Current -->
<g id="edge19" class="edge">
<title>ActiveSupport::CurrentAttributes&#45;&gt;ActiveStorage::Current</title>
<path fill="none" stroke="black" d="M1517,-441.7C1517,-425.25 1517,-400.65 1517,-384.23"/>
</g>
</g>
</svg>
